<svg width="1080" height="1080" viewBox="0 0 1080 1080" fill="none" xmlns="http://www.w3.org/2000/svg">
<path d="M1003.86 169.57C1003.86 190.28 986.959 207.13 966.249 207.13H904.869V268.51C904.869 289.22 888.019 306.02 867.409 306.02H867.309C846.599 306.02 829.749 289.22 829.749 268.51V207.13H768.419C747.659 207.13 730.859 190.28 730.859 169.57C730.859 159.59 734.769 150.11 741.889 142.99C748.959 135.92 758.339 132.01 768.419 132.01H829.749V70.5801C829.749 49.9201 846.599 33.1201 867.309 33.1201C888.019 33.1201 904.869 49.9201 904.869 70.5801V132.01H966.249C986.959 132.01 1003.86 148.86 1003.86 169.57Z" fill="white"/>
<path d="M676.38 143.75C683.5 151.77 686.91 162.56 685.66 173.24C683.45 192.2 667.15 206.49 647.75 206.49H647C514.66 206.49 390.19 258.04 296.61 351.67C265.77 382.41 239.09 417.06 217.37 454.63C174.19 529.3 151.37 614.86 151.37 702.12C151.37 789.38 173.59 872.38 215.56 946.35C219.82 953.87 227.55 958.34 236.17 958.34C242.39 958.34 248.31 955.88 252.77 951.47L294.9 909.34C301.92 902.32 311.25 898.41 321.13 898.41C333.72 898.41 345.35 904.68 352.22 915.16L352.77 915.91C362.45 930.5 360.54 950.01 348.16 962.35L286.08 1024.43C271.59 1038.92 252.38 1046.9 231.97 1046.9C205.79 1046.9 181.67 1033.81 167.48 1011.9L166.93 1011.05C107.55 919.08 76.1602 812.26 76.1602 702.13C76.1602 592 108.16 483.03 168.69 390.35C190.4 357.1 215.48 326.21 243.21 298.58C351.08 190.66 494.51 131.23 647.01 131.23H648.77C659.25 131.28 669.33 135.84 676.4 143.77L676.38 143.75Z" fill="#4F98DB"/>
<path d="M956.72 638.47L956.67 859.13C956.67 864.55 955.67 869.46 953.61 874.22C951.55 878.98 948.75 883.1 945.29 886.41C941.68 889.92 937.42 892.73 932.7 894.89C928.14 896.9 923.32 897.9 917.96 897.9C912.6 897.9 907.33 896.85 902.21 894.74C897.04 892.63 892.53 889.78 888.82 886.31C885.21 882.9 882.25 878.79 880.04 874.02C877.88 869.31 876.83 864.44 876.83 859.13V636.87C876.48 624.98 873.87 614.1 869.16 604.27C864.45 594.49 858.13 586.02 850.35 578.94C842.63 571.97 833.75 566.4 823.92 562.49C813.99 558.53 803.16 556.47 791.72 556.47C780.28 556.47 769.15 558.68 758.72 562.99C748.39 567.25 739.26 573.17 731.54 580.54C723.77 587.91 717.55 596.69 713.03 606.62C708.47 616.65 706.16 627.63 706.16 639.22V859.12C706.16 870.25 702.55 879.33 695.08 886.8C687.61 894.27 678.58 897.88 667.4 897.88C661.98 897.88 656.92 896.88 652 894.77C646.88 892.61 642.32 889.7 638.41 886.14C634.65 882.78 631.74 878.77 629.53 874C627.37 869.29 626.32 864.42 626.32 859.11V637.35C625.92 625.51 623.46 614.63 618.95 604.7C614.44 594.72 608.27 586.09 600.6 579.02C593.03 571.95 584.1 566.38 574.02 562.42C563.94 558.46 553.06 556.45 541.67 556.45C530.28 556.45 519.25 558.56 509.02 562.67C498.79 566.83 489.66 572.65 481.94 580.02C474.22 587.44 468 596.12 463.49 605.8C458.93 615.68 456.62 626.46 456.62 637.8V859.11C456.62 870.24 452.96 879.32 445.49 886.79C438.02 894.26 428.99 897.87 417.86 897.87C412.39 897.87 407.38 896.87 402.46 894.76C397.34 892.6 392.73 889.69 388.82 886.13C385.06 882.77 382.15 878.76 379.94 873.99C377.78 869.28 376.73 864.41 376.73 859.1V637.34C376.73 615.47 381.09 594.56 389.67 575.2C398.3 555.74 410.23 538.54 425.13 524.1C440.07 509.56 457.73 497.87 477.59 489.35C497.3 480.92 518.36 476.61 540.28 476.61C562.2 476.61 584.81 481.02 604.77 489.8C624.93 498.63 642.83 510.81 658.13 526.06L666 533.98L673.87 526.06C689.17 510.81 707.22 498.63 727.63 489.8C747.94 481.07 769.81 476.61 792.67 476.61C815.53 476.61 835.9 480.77 855.16 488.9C874.52 497.12 891.72 508.56 906.36 522.85C921 537.24 932.89 554.19 941.72 573.25C950.45 592.26 955.36 612.87 956.21 634.48C956.21 635.43 956.36 636.94 956.71 638.44L956.72 638.47Z" fill="white"/>
</svg>
