<svg width="1920" height="682" viewBox="0 0 1920 682" fill="none" xmlns="http://www.w3.org/2000/svg">
<path d="M1527.75 635.47C1527.75 638.92 1526.58 641.82 1524.24 644.16C1521.9 646.5 1519 647.67 1515.56 647.67C1513.87 647.67 1512.26 647.35 1510.73 646.69C1509.19 646.04 1507.84 645.18 1506.64 644.1C1505.45 643.03 1504.51 641.74 1503.82 640.24C1503.13 638.75 1502.79 637.16 1502.79 635.47V581.29C1502.79 575.54 1503.92 570.11 1506.18 565.01C1508.44 559.91 1511.53 555.46 1515.44 551.67C1519.35 547.88 1523.89 544.87 1529.07 542.64C1534.25 540.42 1539.71 539.3 1545.46 539.3C1551.21 539.3 1557.06 540.45 1562.31 542.75C1567.56 545.05 1572.18 548.2 1576.17 552.18C1580.16 548.19 1584.81 545.05 1590.15 542.75C1595.48 540.45 1601.13 539.3 1607.12 539.3C1613.11 539.3 1618.39 540.38 1623.45 542.52C1628.51 544.67 1632.96 547.62 1636.79 551.38C1640.62 555.14 1643.69 559.51 1645.99 564.5C1648.29 569.48 1649.56 574.81 1649.79 580.49C1649.79 580.64 1649.81 580.81 1649.85 581.01C1649.89 581.2 1649.91 581.37 1649.91 581.53V635.48C1649.91 637.17 1649.59 638.76 1648.93 640.25C1648.28 641.75 1647.39 643.03 1646.28 644.11C1645.17 645.18 1643.88 646.05 1642.43 646.7C1640.97 647.35 1639.4 647.68 1637.71 647.68C1636.02 647.68 1634.39 647.36 1632.82 646.7C1631.25 646.05 1629.89 645.19 1628.74 644.11C1627.59 643.04 1626.67 641.75 1625.98 640.25C1625.29 638.76 1624.94 637.17 1624.94 635.48V581.19C1624.86 578.74 1624.33 576.47 1623.33 574.4C1622.33 572.33 1621.01 570.55 1619.36 569.05C1617.71 567.56 1615.83 566.39 1613.72 565.54C1611.61 564.7 1609.33 564.27 1606.88 564.27C1604.43 564.27 1602.08 564.73 1599.86 565.65C1597.64 566.57 1595.7 567.82 1594.05 569.39C1592.4 570.96 1591.1 572.81 1590.14 574.91C1589.18 577.02 1588.7 579.3 1588.7 581.76V635.48C1588.7 638.93 1587.53 641.83 1585.19 644.17C1582.85 646.51 1579.96 647.68 1576.51 647.68C1574.82 647.68 1573.21 647.36 1571.68 646.7C1570.15 646.05 1568.79 645.19 1567.6 644.11C1566.41 643.04 1565.47 641.75 1564.78 640.25C1564.09 638.76 1563.75 637.17 1563.75 635.48V581.3C1563.67 578.85 1563.15 576.57 1562.2 574.45C1561.24 572.34 1559.96 570.54 1558.35 569.04C1556.74 567.55 1554.86 566.38 1552.71 565.53C1550.56 564.69 1548.26 564.26 1545.81 564.26C1543.36 564.26 1541.04 564.7 1538.85 565.59C1536.66 566.47 1534.75 567.7 1533.1 569.27C1531.45 570.84 1530.15 572.66 1529.19 574.73C1528.23 576.8 1527.75 579.03 1527.75 581.4V635.46V635.47Z" fill="#C1272D"/>
<path d="M1670.5 594.17C1670.5 586.58 1671.96 579.47 1674.87 572.83C1677.78 566.2 1681.73 560.39 1686.72 555.4C1691.7 550.42 1697.51 546.49 1704.15 543.61C1710.78 540.73 1717.86 539.3 1725.37 539.3C1732.88 539.3 1740.1 540.74 1746.77 543.61C1753.44 546.49 1759.25 550.42 1764.2 555.4C1769.15 560.38 1773.04 566.2 1775.87 572.83C1778.71 579.46 1780.13 586.58 1780.13 594.17V634.89C1780.13 636.65 1779.8 638.3 1779.15 639.84C1778.5 641.37 1777.6 642.72 1776.45 643.87C1775.3 645.02 1773.94 645.94 1772.37 646.63C1770.8 647.32 1769.13 647.66 1767.37 647.66C1764.38 647.66 1761.85 646.78 1759.78 645.01C1757.71 643.25 1756.33 641.03 1755.64 638.34C1751.27 641.64 1746.53 644.25 1741.44 646.16C1736.34 648.08 1730.99 649.04 1725.39 649.04C1717.87 649.04 1710.8 647.6 1704.17 644.73C1697.54 641.86 1691.73 637.93 1686.74 632.94C1681.76 627.96 1677.8 622.13 1674.89 615.45C1671.98 608.78 1670.52 601.69 1670.52 594.17H1670.5ZM1695.46 594.17C1695.46 598.23 1696.25 602.09 1697.82 605.73C1699.39 609.37 1701.54 612.55 1704.26 615.27C1706.98 617.99 1710.14 620.14 1713.75 621.71C1717.35 623.28 1721.23 624.07 1725.37 624.07C1729.51 624.07 1733.4 623.28 1737.05 621.71C1740.69 620.14 1743.85 617.99 1746.54 615.27C1749.22 612.55 1751.33 609.37 1752.87 605.73C1754.4 602.09 1755.17 598.23 1755.17 594.17C1755.17 590.11 1754.4 586.14 1752.87 582.49C1751.34 578.85 1749.23 575.69 1746.54 573C1743.85 570.32 1740.69 568.19 1737.05 566.62C1733.41 565.05 1729.51 564.26 1725.37 564.26C1721.23 564.26 1717.45 565.05 1713.81 566.62C1710.17 568.19 1706.99 570.32 1704.27 573C1701.55 575.69 1699.4 578.85 1697.83 582.49C1696.26 586.13 1695.47 590.03 1695.47 594.17H1695.46Z" fill="#C1272D"/>
<path d="M1909.4 553.05C1909.33 554.63 1908.97 556.18 1908.33 557.7C1907.66 559.23 1906.78 560.61 1905.61 561.85L1877.64 589.54L1860.29 572.19L1888.36 544.6C1889.67 543.29 1891.11 542.33 1892.68 541.71C1894.26 541.11 1895.85 540.8 1897.45 540.8C1899.05 540.8 1900.62 541.09 1902.1 541.66C1903.6 542.23 1904.92 543.09 1906.09 544.24C1907.31 545.48 1908.19 546.87 1908.74 548.39C1909.27 549.92 1909.5 551.47 1909.41 553.04L1909.4 553.05Z" fill="#C1272D"/>
<path d="M1909.02 635.13C1909.04 636.73 1908.76 638.33 1908.14 639.9C1907.54 641.48 1906.61 642.84 1905.4 643.98C1902.77 646.44 1899.84 647.66 1896.55 647.66C1893.26 647.66 1890.25 646.44 1887.79 643.98L1860.03 616.6L1877.64 598.99L1905.4 626.27C1906.38 627.32 1907.19 628.49 1907.76 629.78C1907.88 629.97 1907.95 630.19 1908.05 630.4C1908.65 631.93 1908.98 633.5 1909.03 635.13H1909.02Z" fill="#C1272D"/>
<path d="M1872.24 594.27L1827.37 639.14L1822.33 644.1C1821.18 645.32 1819.85 646.25 1818.37 646.84C1816.87 647.46 1815.36 647.77 1813.81 647.77C1810.59 647.77 1807.68 646.53 1805.07 644.09C1803.85 642.92 1802.92 641.61 1802.3 640.1C1801.7 638.62 1801.42 637.07 1801.44 635.52C1801.49 633.94 1801.82 632.39 1802.42 630.84C1803.04 629.31 1803.92 627.93 1805.07 626.71L1837.62 594.49L1804.37 561.72C1803.22 560.57 1802.34 559.21 1801.72 557.69C1801.12 556.16 1800.81 554.61 1800.86 553.04C1800.91 551.46 1801.22 549.91 1801.84 548.39C1802.46 546.86 1803.37 545.48 1804.61 544.24C1807.21 541.78 1810.17 540.56 1813.46 540.56C1814.99 540.56 1816.52 540.87 1818.07 541.49C1819.6 542.09 1820.98 543.02 1822.2 544.23L1872.23 594.26L1872.24 594.27Z" fill="#C1272D"/>
<path d="M1474.6 602.47L1431.76 645.31L1426.05 650.94C1424.74 652.33 1423.21 653.39 1421.54 654.06C1419.84 654.78 1418.11 655.12 1416.36 655.12C1412.68 655.12 1409.37 653.73 1406.42 650.94C1405.05 649.63 1404 648.13 1403.27 646.43C1402.6 644.73 1402.27 642.98 1402.29 641.19C1402.35 639.41 1402.74 637.65 1403.4 635.9C1404.1 634.15 1405.13 632.59 1406.41 631.19L1440.72 597.24C1442.22 595.76 1442.22 593.37 1440.72 591.89L1405.63 557.3C1404.32 555.99 1403.32 554.46 1402.62 552.7C1401.95 550.97 1401.59 549.22 1401.64 547.41C1401.7 545.63 1402.03 543.87 1402.75 542.12C1403.45 540.39 1404.48 538.81 1405.9 537.41C1408.85 534.6 1412.22 533.23 1415.95 533.23C1417.7 533.23 1419.43 533.56 1421.19 534.29C1422.95 534.96 1424.5 536.02 1425.9 537.41L1474.58 586.09C1479.09 590.6 1479.09 597.93 1474.58 602.47H1474.6Z" fill="#C1272D"/>
<path d="M504.92 376.51C504.92 361.04 507.87 346.47 513.77 332.83C519.67 319.19 527.71 307.27 537.91 297.08C548.1 286.89 559.98 278.85 573.55 272.94C587.11 267.04 601.63 264.09 617.11 264.09C632.59 264.09 647.38 267.04 661.02 272.94C674.66 278.84 686.54 286.89 696.66 297.08C706.77 307.27 714.74 319.19 720.57 332.83C726.39 346.47 729.31 361.03 729.31 376.51C729.31 391.99 726.39 406.55 720.57 420.19C714.75 433.83 706.78 445.71 696.66 455.82C686.54 465.94 674.66 473.95 661.02 479.84C647.38 485.74 632.74 488.69 617.11 488.69C601.48 488.69 587.11 485.74 573.55 479.84C559.99 473.95 548.1 465.93 537.91 455.82C527.72 445.71 519.67 433.83 513.77 420.19C507.87 406.55 504.92 391.99 504.92 376.51ZM545.61 376.51C545.61 386.29 547.49 395.5 551.24 404.13C554.99 412.76 560.09 420.32 566.53 426.81C572.97 433.3 580.51 438.42 589.17 442.16C597.83 445.9 607.14 447.78 617.1 447.78C627.06 447.78 636.6 445.91 645.26 442.16C653.92 438.42 661.47 433.3 667.9 426.81C674.34 420.32 679.4 412.76 683.07 404.13C686.75 395.5 688.59 386.29 688.59 376.51C688.59 366.73 686.75 357.53 683.07 348.9C679.4 340.27 674.34 332.75 667.9 326.33C661.46 319.91 653.91 314.83 645.26 311.09C636.6 307.35 627.22 305.47 617.1 305.47C606.98 305.47 597.83 307.34 589.17 311.09C580.51 314.83 572.96 319.91 566.53 326.33C560.09 332.74 554.99 340.27 551.24 348.9C547.48 357.53 545.61 366.73 545.61 376.51Z" fill="white"/>
<path d="M1389.33 296.44C1379.37 286.37 1367.67 278.45 1354.25 272.61C1340.81 266.8 1326.35 263.88 1310.87 263.88C1295.39 263.88 1280.85 266.83 1267.36 272.72C1253.87 278.64 1242.08 286.7 1232.04 296.9C1222 307.1 1214.05 319.04 1208.21 332.67C1202.4 346.33 1199.48 360.92 1199.48 376.39C1199.48 391.86 1202.37 406.46 1208.21 420.12C1214.05 433.78 1221.97 445.66 1232.01 455.79C1242.05 465.94 1253.81 473.94 1267.3 479.86C1280.77 485.75 1295.25 488.7 1310.73 488.7C1324.22 488.7 1336.94 486.48 1348.91 482.01C1360.85 477.54 1371.67 471.3 1381.31 463.27C1381.11 466.03 1381.13 471.19 1383.67 476.37C1385.08 479.24 1386.76 481.08 1387.1 481.46C1390.8 485.53 1395.56 487.59 1401.43 487.59C1407.3 487.59 1412.22 485.56 1416.24 481.49C1420.26 477.42 1422.24 472.47 1422.24 466.63V375.06C1421.95 359.72 1418.87 345.29 1413.06 331.79C1407.22 318.29 1399.32 306.51 1389.34 296.47L1389.33 296.44ZM1376.15 404.05C1372.53 412.7 1367.56 420.28 1361.21 426.78C1354.84 433.29 1347.37 438.4 1338.8 442.15C1330.2 445.9 1320.86 447.77 1310.74 447.77C1300.62 447.77 1291.51 445.9 1282.92 442.15C1274.35 438.4 1266.91 433.29 1260.64 426.78C1254.35 420.27 1249.37 412.7 1245.7 404.05C1242 395.4 1240.18 386.19 1240.18 376.39C1240.18 366.59 1242 357.38 1245.7 348.73C1249.37 340.08 1254.35 332.56 1260.64 326.13C1266.91 319.7 1274.35 314.62 1282.92 310.87C1291.52 307.12 1300.78 305.25 1310.74 305.25C1320.7 305.25 1330.21 307.12 1338.8 310.87C1347.37 314.62 1354.84 319.71 1361.21 326.13C1367.56 332.56 1372.54 340.08 1376.15 348.73C1379.74 357.38 1381.56 366.62 1381.56 376.39C1381.56 386.16 1379.74 395.4 1376.15 404.05Z" fill="white"/>
<path d="M957.94 330.31C963.4 343.48 966.11 357.51 966.11 372.37V465.93C966.11 471.77 964.18 476.56 960.35 480.31C956.49 484.06 951.7 485.93 946 485.93C940.3 485.93 935.45 484.06 931.43 480.31C927.41 476.56 925.43 471.77 925.43 465.93V372.83C925.27 363.49 923.5 354.7 920.13 346.51C916.76 338.32 912.12 331.14 906.23 325.01C900.31 318.88 893.38 314.03 885.43 310.42C877.45 306.83 868.8 305.01 859.46 305.01C850.12 305.01 841.47 306.75 833.59 310.2C825.69 313.63 818.84 318.42 813 324.55C807.19 330.68 802.61 337.86 799.32 346.05C796.03 354.24 794.39 363.03 794.39 372.37V465.93C794.39 471.77 792.52 476.56 788.74 480.31C784.99 484.06 780.28 485.93 774.6 485.93C771.87 485.93 769.22 485.45 766.67 484.46C764.15 483.44 761.93 482.08 760 480.31C758.1 478.54 756.57 476.45 755.42 473.99C754.27 471.53 753.68 468.85 753.68 465.93V372.37C753.68 357.51 756.41 343.48 761.85 330.31C767.31 317.14 774.78 305.62 784.29 295.82C793.8 286.02 805.01 278.28 817.89 272.61C830.8 266.93 844.67 264.1 859.55 264.1C874.43 264.1 888.58 266.94 901.53 272.61C914.49 278.29 925.79 286.02 935.37 295.82C944.96 305.62 952.48 317.13 957.92 330.31H957.94Z" fill="white"/>
<path d="M1640.62 485.94C1634.92 485.94 1630.07 484.07 1626.05 480.32C1622.06 476.57 1620.05 471.78 1620.05 465.94V372.84C1619.89 363.5 1618.12 354.71 1614.75 346.52C1611.4 338.33 1606.74 331.15 1600.85 325.02C1594.96 318.89 1588.02 314.04 1580.05 310.43C1572.07 306.84 1563.42 305.02 1554.08 305.02C1544.74 305.02 1536.11 306.76 1528.21 310.21C1520.31 313.64 1513.46 318.43 1507.65 324.56C1501.81 330.69 1497.26 337.87 1493.97 346.06C1490.68 354.25 1489.02 363.04 1489.02 372.38V465.94C1489.02 471.78 1487.15 476.57 1483.4 480.32C1479.62 484.07 1474.94 485.94 1469.26 485.94C1466.5 485.94 1463.85 485.46 1461.33 484.47C1458.79 483.45 1456.56 482.09 1454.64 480.32C1452.74 478.55 1451.21 476.46 1450.06 474C1448.91 471.54 1448.32 468.86 1448.32 465.94V372.38C1448.32 357.52 1451.05 343.49 1456.51 330.32C1461.95 317.15 1469.42 305.63 1478.95 295.83C1488.46 286.03 1499.65 278.29 1512.53 272.62C1525.44 266.94 1539.31 264.11 1554.19 264.11C1569.07 264.11 1583.24 266.95 1596.2 272.62C1609.16 278.3 1620.43 286.03 1630.02 295.83C1639.61 305.63 1647.13 317.14 1652.57 330.32C1658.03 343.49 1660.76 357.52 1660.76 372.38V465.94C1660.76 471.78 1658.83 476.57 1654.98 480.32C1651.12 484.07 1646.33 485.94 1640.63 485.94H1640.62Z" fill="white"/>
<path d="M1719.18 455.79C1729.22 465.94 1740.98 473.94 1754.47 479.86C1767.97 485.75 1782.45 488.7 1797.93 488.7C1811.4 488.7 1824.14 486.48 1836.09 482.01C1848.03 477.54 1858.85 471.3 1868.52 463.27C1868.32 465.99 1868.31 471.18 1870.85 476.37C1871.33 477.34 1872.34 479.32 1874.28 481.46C1877.97 485.53 1882.77 487.59 1888.63 487.59C1894.49 487.59 1899.42 485.56 1903.41 481.49C1907.43 477.42 1909.43 472.47 1909.43 466.63V375.06C1909.11 359.72 1906.06 345.29 1900.22 331.79C1894.38 318.29 1886.48 306.51 1876.52 296.47C1866.53 286.4 1854.83 278.48 1841.42 272.64C1828.01 266.83 1813.55 263.91 1798.04 263.91C1782.53 263.91 1768.05 266.86 1754.56 272.75C1741.04 278.67 1729.28 286.73 1719.22 296.93C1709.18 307.13 1701.23 319.07 1695.42 332.7C1689.58 346.36 1686.66 360.95 1686.66 376.42C1686.66 391.89 1689.58 406.49 1695.39 420.15C1701.23 433.81 1709.15 445.69 1719.19 455.82L1719.18 455.79ZM1732.86 348.74C1736.53 340.09 1741.51 332.57 1747.8 326.14C1754.09 319.71 1761.51 314.63 1770.1 310.88C1778.67 307.13 1787.96 305.26 1797.92 305.26C1807.88 305.26 1817.39 307.13 1825.95 310.88C1834.54 314.63 1842.02 319.72 1848.36 326.14C1854.73 332.57 1859.71 340.09 1863.3 348.74C1866.92 357.39 1868.71 366.63 1868.71 376.4C1868.71 386.17 1866.92 395.41 1863.3 404.06C1859.71 412.71 1854.73 420.29 1848.36 426.79C1842.01 433.3 1834.54 438.41 1825.95 442.16C1817.38 445.91 1808.01 447.78 1797.92 447.78C1787.83 447.78 1778.67 445.91 1770.1 442.16C1761.5 438.41 1754.09 433.3 1747.8 426.79C1741.51 420.28 1736.53 412.71 1732.86 404.06C1729.19 395.41 1727.34 386.2 1727.34 376.4C1727.34 366.6 1729.19 357.39 1732.86 348.74Z" fill="white"/>
<path d="M1184.62 436.05C1185.61 438.35 1186.12 440.9 1186.12 443.65C1186.12 446.7 1185.45 449.81 1184.17 452.94C1182.86 456.1 1181.06 458.8 1178.76 461.11C1169.09 470.32 1158.17 477.2 1145.99 481.81C1133.81 486.39 1120.61 488.69 1106.33 488.69C1090.72 488.69 1076.07 485.85 1062.42 480.2C1048.79 474.52 1036.9 466.7 1026.75 456.74C1016.6 446.78 1008.6 435.05 1002.73 421.56C996.84 408.09 993.92 393.53 993.92 377.89V218.12C993.92 215.36 994.46 212.71 995.53 210.19C996.6 207.65 998.07 205.42 999.97 203.52C1001.87 201.59 1004.04 200.12 1006.48 199.02C1008.94 197.95 1011.51 197.41 1014.27 197.41C1017.03 197.41 1019.68 197.95 1022.28 199.02C1024.85 200.12 1027.1 201.56 1029.03 203.41C1030.93 205.23 1032.46 207.43 1033.58 209.94C1034.73 212.48 1035.29 215.19 1035.29 218.11V263.17H1126.57C1132.25 263.17 1137.07 265.2 1141.06 269.25C1145.05 273.32 1147.03 278.19 1147.03 283.87C1147.03 289.55 1145.08 294.02 1141.17 297.77C1137.26 301.52 1132.39 303.39 1126.58 303.39H1035.3V378.34C1035.3 388.17 1037.15 397.32 1040.82 405.81C1044.52 414.32 1049.52 421.71 1055.89 428.01C1062.24 434.28 1069.76 439.23 1078.41 442.82C1087.09 446.43 1096.38 448.23 1106.34 448.23C1115.1 448.23 1123.32 446.97 1131.05 444.45C1138.79 441.91 1145.88 437.65 1152.34 431.68C1157.24 427.07 1162.35 424.77 1167.74 424.77C1170.04 424.77 1172.29 425.25 1174.51 426.16C1176.73 427.07 1178.71 428.38 1180.48 430.07C1182.25 431.76 1183.64 433.74 1184.63 436.04L1184.62 436.05Z" fill="white"/>
<path d="M505.91 99.7499C505.91 110.81 496.89 119.81 485.83 119.81H453.06V152.58C453.06 163.64 444.06 172.61 433.06 172.61H433.01C421.95 172.61 412.95 163.64 412.95 152.58V119.81H380.2C369.11 119.81 360.14 110.81 360.14 99.7499C360.14 94.4199 362.23 89.3599 366.03 85.5599C369.81 81.7799 374.81 79.6999 380.19 79.6999H412.94V46.8999C412.94 35.8699 421.94 26.8999 433 26.8999C444.06 26.8999 453.06 35.8699 453.06 46.8999V79.6999H485.83C496.89 79.6999 505.91 88.6999 505.91 99.7599V99.7499Z" fill="white"/>
<path d="M331.06 85.96C334.86 90.24 336.68 96 336.01 101.7C334.83 111.82 326.13 119.45 315.77 119.45H315.37C244.71 119.45 178.25 146.98 128.29 196.97C111.82 213.38 97.5798 231.89 85.9798 251.94C62.9298 291.81 50.7398 337.49 50.7398 384.08C50.7398 430.67 62.5998 474.98 85.0098 514.48C87.2898 518.5 91.4098 520.88 96.0098 520.88C99.3298 520.88 102.49 519.57 104.87 517.21L127.36 494.72C131.11 490.97 136.09 488.88 141.36 488.88C148.08 488.88 154.29 492.23 157.96 497.82L158.25 498.22C163.42 506.01 162.4 516.43 155.79 523.01L122.64 556.16C114.9 563.9 104.65 568.16 93.7498 568.16C79.7698 568.16 66.8898 561.17 59.3198 549.47L59.0298 549.01C27.3298 499.9 10.5698 442.87 10.5698 384.07C10.5698 325.27 27.6498 267.09 59.9698 217.6C71.5598 199.85 84.9498 183.35 99.7598 168.6C157.36 110.98 233.93 79.25 315.36 79.25H316.3C321.9 79.28 327.28 81.71 331.05 85.94L331.06 85.96Z" fill="#C1272D"/>
<path d="M480.74 350.1L480.71 467.91C480.71 470.8 480.17 473.43 479.08 475.97C477.98 478.51 476.48 480.71 474.64 482.48C472.71 484.35 470.44 485.85 467.92 487.01C465.48 488.08 462.91 488.62 460.05 488.62C457.19 488.62 454.37 488.06 451.64 486.93C448.88 485.81 446.47 484.28 444.49 482.43C442.56 480.61 440.98 478.41 439.8 475.87C438.65 473.35 438.09 470.76 438.09 467.92V349.25C437.9 342.9 436.51 337.09 433.99 331.85C431.47 326.63 428.1 322.1 423.95 318.33C419.83 314.61 415.09 311.64 409.84 309.55C404.54 307.43 398.75 306.34 392.65 306.34C386.55 306.34 380.6 307.52 375.03 309.82C369.51 312.1 364.64 315.26 360.52 319.19C356.37 323.13 353.05 327.81 350.64 333.11C348.2 338.47 346.97 344.33 346.97 350.51V467.92C346.97 473.86 345.04 478.71 341.05 482.7C337.06 486.69 332.24 488.62 326.27 488.62C323.38 488.62 320.67 488.08 318.05 486.96C315.32 485.81 312.88 484.26 310.79 482.35C308.78 480.56 307.23 478.41 306.05 475.87C304.9 473.35 304.34 470.76 304.34 467.92V349.52C304.13 343.2 302.81 337.39 300.4 332.09C297.99 326.76 294.7 322.16 290.6 318.38C286.56 314.6 281.79 311.63 276.41 309.52C271.03 307.4 265.22 306.33 259.14 306.33C253.06 306.33 247.17 307.45 241.71 309.65C236.25 311.87 231.37 314.98 227.25 318.91C223.13 322.87 219.81 327.5 217.4 332.67C214.96 337.94 213.73 343.7 213.73 349.75V467.91C213.73 473.85 211.78 478.7 207.79 482.69C203.8 486.68 198.98 488.61 193.04 488.61C190.12 488.61 187.44 488.07 184.82 486.95C182.09 485.8 179.63 484.25 177.54 482.34C175.53 480.55 173.98 478.4 172.8 475.86C171.65 473.34 171.09 470.75 171.09 467.91V349.51C171.09 337.84 173.42 326.67 178 316.33C182.61 305.94 188.98 296.76 196.93 289.05C204.91 281.29 214.33 275.05 224.94 270.49C235.46 265.99 246.71 263.69 258.41 263.69C270.11 263.69 282.19 266.05 292.84 270.73C303.6 275.44 313.16 281.95 321.33 290.09L325.53 294.32L329.73 290.09C337.9 281.95 347.54 275.44 358.43 270.73C369.27 266.07 380.95 263.69 393.16 263.69C405.37 263.69 416.24 265.91 426.52 270.25C436.86 274.64 446.04 280.75 453.86 288.38C461.68 296.06 468.02 305.11 472.74 315.29C477.4 325.44 480.02 336.44 480.48 347.98C480.48 348.49 480.56 349.29 480.75 350.1H480.74Z" fill="white"/>
</svg>
