<svg width="1920" height="682" viewBox="0 0 1920 682" fill="none" xmlns="http://www.w3.org/2000/svg">
<path d="M486.08 400.45C486.08 385.59 488.91 371.62 494.58 358.52C500.24 345.43 507.97 333.99 517.75 324.2C527.53 314.42 538.94 306.69 551.96 301.03C564.98 295.37 578.92 292.53 593.78 292.53C608.64 292.53 622.84 295.37 635.93 301.03C649.02 306.7 660.43 314.42 670.14 324.2C679.85 333.99 687.5 345.43 693.09 358.52C698.68 371.62 701.48 385.59 701.48 400.45C701.48 415.31 698.68 429.29 693.09 442.38C687.5 455.48 679.85 466.88 670.14 476.59C660.43 486.3 649.02 493.99 635.93 499.65C622.83 505.32 608.78 508.15 593.78 508.15C578.78 508.15 564.98 505.32 551.96 499.65C538.94 493.99 527.53 486.3 517.75 476.59C507.96 466.88 500.24 455.48 494.58 442.38C488.91 429.29 486.08 415.31 486.08 400.45ZM525.15 400.45C525.15 409.84 526.95 418.68 530.56 426.96C534.16 435.25 539.06 442.5 545.24 448.74C551.42 454.97 558.67 459.89 566.98 463.48C575.29 467.07 584.23 468.87 593.79 468.87C603.35 468.87 612.51 467.07 620.83 463.48C629.14 459.89 636.39 454.98 642.57 448.74C648.75 442.51 653.61 435.25 657.13 426.96C660.66 418.67 662.43 409.83 662.43 400.45C662.43 391.07 660.67 382.23 657.13 373.94C653.6 365.66 648.75 358.43 642.57 352.28C636.39 346.12 629.14 341.24 620.83 337.65C612.52 334.06 603.51 332.26 593.79 332.26C584.07 332.26 575.29 334.06 566.98 337.65C558.67 341.24 551.42 346.12 545.24 352.28C539.06 358.44 534.17 365.66 530.56 373.94C526.95 382.23 525.15 391.06 525.15 400.45Z" fill="white"/>
<path d="M1335.12 323.58C1325.56 313.91 1314.32 306.31 1301.45 300.7C1288.55 295.12 1274.66 292.32 1259.81 292.32C1244.96 292.32 1230.99 295.15 1218.04 300.8C1205.08 306.48 1193.77 314.22 1184.13 324.01C1174.49 333.8 1166.86 345.27 1161.25 358.35C1155.67 371.46 1152.87 385.47 1152.87 400.33C1152.87 415.19 1155.65 429.2 1161.25 442.31C1166.85 455.42 1174.46 466.83 1184.1 476.55C1193.74 486.29 1205.02 493.98 1217.98 499.66C1230.91 505.32 1244.82 508.14 1259.67 508.14C1272.63 508.14 1284.84 506.01 1296.33 501.71C1307.79 497.42 1318.18 491.43 1327.43 483.72C1327.24 486.37 1327.26 491.33 1329.69 496.29C1331.04 499.04 1332.65 500.81 1332.98 501.17C1336.53 505.08 1341.1 507.06 1346.73 507.06C1352.36 507.06 1357.09 505.11 1360.95 501.2C1364.81 497.29 1366.71 492.54 1366.71 486.93V399.02C1366.43 384.29 1363.47 370.44 1357.89 357.48C1352.29 344.52 1344.7 333.21 1335.11 323.57L1335.12 323.58ZM1322.47 426.89C1319 435.19 1314.22 442.47 1308.13 448.71C1302.01 454.96 1294.84 459.87 1286.62 463.46C1278.37 467.06 1269.4 468.86 1259.68 468.86C1249.96 468.86 1241.22 467.06 1232.97 463.46C1224.74 459.86 1217.6 454.95 1211.58 448.71C1205.54 442.46 1200.76 435.19 1197.24 426.89C1193.69 418.59 1191.94 409.74 1191.94 400.34C1191.94 390.94 1193.69 382.09 1197.24 373.79C1200.76 365.49 1205.54 358.26 1211.58 352.09C1217.59 345.92 1224.74 341.04 1232.97 337.44C1241.22 333.84 1250.12 332.04 1259.68 332.04C1269.24 332.04 1278.37 333.84 1286.62 337.44C1294.85 341.04 1302.02 345.92 1308.13 352.09C1314.22 358.26 1319 365.48 1322.47 373.79C1325.91 382.09 1327.66 390.96 1327.66 400.34C1327.66 409.72 1325.91 418.59 1322.47 426.89Z" fill="white"/>
<path d="M920.98 356.1C926.22 368.75 928.82 382.22 928.82 396.48V486.29C928.82 491.89 926.97 496.5 923.29 500.09C919.59 503.69 914.99 505.49 909.51 505.49C904.03 505.49 899.38 503.69 895.53 500.09C891.67 496.49 889.77 491.89 889.77 486.29V396.91C889.62 387.94 887.92 379.51 884.68 371.64C881.44 363.77 876.99 356.89 871.34 351C865.66 345.11 859 340.46 851.37 336.99C843.71 333.55 835.41 331.8 826.44 331.8C817.47 331.8 809.17 333.47 801.61 336.79C794.03 340.08 787.45 344.68 781.84 350.57C776.26 356.46 771.87 363.35 768.7 371.21C765.54 379.08 763.97 387.51 763.97 396.48V486.29C763.97 491.89 762.17 496.5 758.55 500.09C754.95 503.69 750.43 505.49 744.98 505.49C742.36 505.49 739.81 505.03 737.37 504.08C734.95 503.1 732.82 501.79 730.97 500.1C729.14 498.4 727.68 496.4 726.57 494.03C725.46 491.67 724.9 489.09 724.9 486.29V396.48C724.9 382.21 727.52 368.74 732.74 356.1C737.98 343.45 745.16 332.4 754.28 322.99C763.41 313.58 774.18 306.15 786.54 300.7C798.93 295.25 812.25 292.53 826.54 292.53C840.83 292.53 854.4 295.25 866.85 300.7C879.29 306.15 890.14 313.58 899.34 322.99C908.54 332.4 915.77 343.45 920.98 356.1Z" fill="white"/>
<path d="M1576.36 505.5C1570.88 505.5 1566.23 503.7 1562.38 500.1C1558.55 496.5 1556.62 491.9 1556.62 486.3V396.92C1556.47 387.95 1554.77 379.52 1551.53 371.65C1548.32 363.78 1543.84 356.9 1538.19 351.01C1532.53 345.12 1525.88 340.47 1518.22 337C1510.56 333.56 1502.26 331.81 1493.29 331.81C1484.32 331.81 1476.04 333.48 1468.46 336.8C1460.88 340.09 1454.3 344.69 1448.72 350.58C1443.12 356.47 1438.75 363.36 1435.58 371.22C1432.42 379.09 1430.82 387.52 1430.82 396.49V486.3C1430.82 491.9 1429.02 496.51 1425.42 500.1C1421.8 503.7 1417.3 505.5 1411.85 505.5C1409.2 505.5 1406.66 505.04 1404.24 504.09C1401.8 503.11 1399.66 501.8 1397.81 500.11C1395.98 498.41 1394.52 496.41 1393.41 494.04C1392.3 491.68 1391.74 489.1 1391.74 486.3V396.49C1391.74 382.22 1394.36 368.75 1399.61 356.11C1404.83 343.46 1412 332.41 1421.15 323C1430.28 313.59 1441.02 306.16 1453.38 300.71C1465.77 295.26 1479.09 292.54 1493.38 292.54C1507.67 292.54 1521.27 295.26 1533.71 300.71C1546.15 306.16 1556.97 313.59 1566.18 323C1575.38 332.41 1582.61 343.46 1587.82 356.11C1593.06 368.76 1595.69 382.23 1595.69 396.49V486.3C1595.69 491.9 1593.84 496.51 1590.14 500.1C1586.44 503.7 1581.84 505.5 1576.36 505.5Z" fill="white"/>
<path d="M1651.78 476.56C1661.42 486.3 1672.7 493.99 1685.66 499.67C1698.62 505.33 1712.52 508.15 1727.38 508.15C1740.31 508.15 1752.55 506.02 1764.01 501.72C1775.47 497.43 1785.86 491.44 1795.14 483.73C1794.95 486.34 1794.94 491.32 1797.38 496.3C1797.84 497.23 1798.81 499.13 1800.67 501.18C1804.22 505.09 1808.82 507.07 1814.45 507.07C1820.08 507.07 1824.81 505.12 1828.64 501.21C1832.5 497.3 1834.42 492.55 1834.42 486.94V399.03C1834.11 384.3 1831.18 370.45 1825.58 357.49C1819.98 344.53 1812.39 333.22 1802.83 323.58C1793.24 313.91 1782.01 306.31 1769.13 300.7C1756.25 295.12 1742.37 292.32 1727.49 292.32C1712.61 292.32 1698.7 295.15 1685.74 300.8C1672.76 306.48 1661.47 314.22 1651.81 324.01C1642.17 333.8 1634.54 345.27 1628.96 358.35C1623.36 371.46 1620.55 385.47 1620.55 400.33C1620.55 415.19 1623.35 429.2 1628.93 442.31C1634.53 455.42 1642.14 466.83 1651.78 476.55V476.56ZM1664.92 373.79C1668.44 365.49 1673.22 358.26 1679.26 352.09C1685.3 345.92 1692.42 341.04 1700.67 337.44C1708.9 333.84 1717.82 332.04 1727.38 332.04C1736.94 332.04 1746.07 333.84 1754.29 337.44C1762.54 341.04 1769.71 345.92 1775.81 352.09C1781.93 358.26 1786.71 365.48 1790.15 373.79C1793.62 382.09 1795.34 390.96 1795.34 400.34C1795.34 409.72 1793.62 418.59 1790.15 426.89C1786.71 435.19 1781.92 442.47 1775.81 448.71C1769.72 454.96 1762.55 459.87 1754.29 463.46C1746.06 467.06 1737.07 468.86 1727.38 468.86C1717.69 468.86 1708.9 467.06 1700.67 463.46C1692.42 459.86 1685.3 454.95 1679.26 448.71C1673.22 442.46 1668.44 435.19 1664.92 426.89C1661.4 418.59 1659.62 409.74 1659.62 400.34C1659.62 390.94 1661.39 382.09 1664.92 373.79Z" fill="white"/>
<path d="M1138.6 457.61C1139.55 459.82 1140.04 462.26 1140.04 464.91C1140.04 467.84 1139.4 470.82 1138.16 473.83C1136.9 476.86 1135.18 479.46 1132.97 481.67C1123.69 490.51 1113.2 497.12 1101.51 501.54C1089.81 505.94 1077.14 508.15 1063.44 508.15C1048.45 508.15 1034.39 505.43 1021.28 500C1008.2 494.55 996.779 487.04 987.039 477.48C977.299 467.92 969.609 456.66 963.979 443.7C958.319 430.77 955.52 416.79 955.52 401.77V248.39C955.52 245.74 956.03 243.2 957.06 240.78C958.09 238.34 959.5 236.2 961.33 234.38C963.15 232.53 965.24 231.12 967.58 230.06C969.94 229.03 972.41 228.52 975.06 228.52C977.71 228.52 980.25 229.03 982.75 230.06C985.22 231.11 987.379 232.5 989.229 234.28C991.059 236.03 992.519 238.14 993.599 240.55C994.709 242.99 995.24 245.59 995.24 248.39V291.65H1082.87C1088.32 291.65 1092.95 293.6 1096.78 297.48C1100.61 301.39 1102.51 306.07 1102.51 311.52C1102.51 316.97 1100.63 321.26 1096.88 324.86C1093.13 328.46 1088.45 330.26 1082.87 330.26H995.24V402.21C995.24 411.64 997.009 420.43 1000.54 428.58C1004.09 436.75 1008.89 443.85 1015.01 449.89C1021.1 455.9 1028.33 460.66 1036.63 464.1C1044.96 467.57 1053.88 469.29 1063.44 469.29C1071.85 469.29 1079.74 468.08 1087.17 465.67C1094.6 463.23 1101.41 459.14 1107.61 453.41C1112.31 448.99 1117.22 446.78 1122.39 446.78C1124.6 446.78 1126.76 447.24 1128.89 448.12C1131.02 448.99 1132.93 450.25 1134.62 451.87C1136.32 453.49 1137.65 455.39 1138.6 457.6V457.61Z" fill="white"/>
<path d="M487.03 134.75C487.03 145.37 478.37 154 467.75 154H436.29V185.46C436.29 196.08 427.65 204.69 417.09 204.69H417.04C406.42 204.69 397.79 196.08 397.79 185.46V154H366.35C355.71 154 347.1 145.36 347.1 134.75C347.1 129.63 349.11 124.78 352.76 121.13C356.38 117.51 361.19 115.5 366.36 115.5H397.8V84.0101C397.8 73.4201 406.44 64.8101 417.05 64.8101C427.66 64.8101 436.3 73.4201 436.3 84.0101V115.5H467.76C478.38 115.5 487.04 124.14 487.04 134.75H487.03Z" fill="white"/>
<path d="M319.18 121.52C322.83 125.63 324.58 131.16 323.94 136.63C322.81 146.35 314.45 153.67 304.51 153.67H304.12C236.28 153.67 172.48 180.09 124.52 228.09C108.71 243.85 95.0398 261.61 83.9098 280.86C61.7798 319.13 50.0798 362.99 50.0798 407.71C50.0798 452.43 61.4698 494.98 82.9798 532.89C85.1598 536.75 89.1198 539.03 93.5398 539.03C96.7298 539.03 99.7598 537.77 102.05 535.51L123.64 513.92C127.24 510.32 132.02 508.32 137.08 508.32C143.53 508.32 149.5 511.53 153.02 516.91L153.3 517.3C158.26 524.78 157.28 534.78 150.94 541.1L119.12 572.92C111.69 580.35 101.85 584.44 91.3798 584.44C77.9598 584.44 65.5998 577.73 58.3198 566.5L58.0398 566.06C27.6098 518.92 11.5098 464.16 11.5098 407.72C11.5098 351.28 27.9098 295.41 58.9398 247.91C70.0698 230.87 82.9198 215.03 97.1398 200.87C152.43 145.55 225.95 115.09 304.12 115.09H305.02C310.39 115.12 315.56 117.45 319.18 121.52Z" fill="#4F98DB"/>
<path d="M462.87 375.1L462.84 488.2C462.84 490.98 462.33 493.5 461.27 495.94C460.22 498.38 458.78 500.49 457 502.19C455.15 503.99 452.96 505.43 450.55 506.53C448.21 507.56 445.74 508.07 442.99 508.07C440.24 508.07 437.54 507.53 434.92 506.45C432.27 505.37 429.96 503.91 428.06 502.13C426.21 500.38 424.69 498.27 423.56 495.83C422.45 493.41 421.91 490.92 421.91 488.2V374.27C421.73 368.18 420.39 362.6 417.98 357.56C415.56 352.55 412.32 348.2 408.34 344.58C404.38 341.01 399.83 338.15 394.79 336.15C389.7 334.12 384.15 333.07 378.29 333.07C372.43 333.07 366.72 334.2 361.38 336.41C356.08 338.6 351.41 341.63 347.45 345.41C343.47 349.19 340.28 353.69 337.96 358.78C335.62 363.92 334.44 369.55 334.44 375.49V488.21C334.44 493.92 332.59 498.57 328.76 502.4C324.93 506.23 320.3 508.08 314.57 508.08C311.79 508.08 309.2 507.57 306.68 506.49C304.06 505.38 301.72 503.89 299.71 502.07C297.78 500.35 296.29 498.29 295.16 495.85C294.05 493.43 293.51 490.94 293.51 488.22V374.55C293.3 368.48 292.04 362.91 289.73 357.82C287.42 352.7 284.25 348.28 280.32 344.66C276.44 341.04 271.86 338.18 266.7 336.15C261.53 334.12 255.96 333.09 250.12 333.09C244.28 333.09 238.63 334.17 233.39 336.28C228.15 338.41 223.47 341.4 219.51 345.17C215.55 348.97 212.36 353.42 210.05 358.38C207.71 363.44 206.53 368.97 206.53 374.78V488.22C206.53 493.93 204.65 498.58 200.82 502.41C196.99 506.24 192.36 508.09 186.66 508.09C183.86 508.09 181.29 507.58 178.77 506.5C176.15 505.39 173.78 503.9 171.78 502.08C169.85 500.36 168.36 498.3 167.23 495.86C166.12 493.44 165.58 490.95 165.58 488.23V374.56C165.58 363.35 167.82 352.63 172.21 342.71C176.63 332.74 182.75 323.92 190.38 316.52C198.04 309.07 207.09 303.08 217.27 298.71C227.37 294.39 238.17 292.18 249.4 292.18C260.63 292.18 272.23 294.44 282.46 298.94C292.79 303.46 301.97 309.71 309.81 317.52L313.85 321.58L317.89 317.52C325.73 309.71 334.98 303.46 345.45 298.94C355.86 294.47 367.07 292.18 378.79 292.18C390.51 292.18 400.95 294.31 410.82 298.48C420.74 302.7 429.56 308.56 437.07 315.88C444.58 323.26 450.67 331.95 455.19 341.71C459.66 351.45 462.18 362.02 462.62 373.1C462.62 373.59 462.7 374.36 462.88 375.13L462.87 375.1Z" fill="white"/>
</svg>
