<svg width="1920" height="682" viewBox="0 0 1920 682" fill="none" xmlns="http://www.w3.org/2000/svg">
<path d="M505.45 393.17C505.45 377.71 508.39 363.17 514.29 349.54C520.18 335.92 528.22 324.01 538.4 313.83C548.58 303.65 560.45 295.62 573.99 289.72C587.53 283.83 602.04 280.88 617.5 280.88C632.96 280.88 647.73 283.83 661.36 289.72C674.98 295.62 686.85 303.65 696.95 313.83C707.05 324.01 715.01 335.92 720.83 349.54C726.65 363.17 729.56 377.71 729.56 393.17C729.56 408.63 726.65 423.18 720.83 436.8C715.01 450.43 707.05 462.29 696.95 472.39C686.84 482.49 674.98 490.5 661.36 496.38C647.73 502.28 633.12 505.22 617.5 505.22C601.88 505.22 587.53 502.27 573.99 496.38C560.44 490.49 548.57 482.49 538.4 472.39C528.22 462.29 520.18 450.43 514.29 436.8C508.39 423.18 505.45 408.63 505.45 393.17ZM546.09 393.17C546.09 402.94 547.96 412.13 551.72 420.76C555.47 429.38 560.56 436.93 566.99 443.42C573.42 449.9 580.96 455.02 589.61 458.75C598.26 462.49 607.55 464.36 617.51 464.36C627.47 464.36 636.99 462.49 645.64 458.75C654.29 455.01 661.83 449.9 668.26 443.42C674.69 436.94 679.74 429.39 683.41 420.76C687.09 412.14 688.92 402.94 688.92 393.17C688.92 383.4 687.09 374.21 683.41 365.59C679.74 356.97 674.69 349.46 668.26 343.05C661.83 336.64 654.29 331.56 645.64 327.83C636.99 324.09 627.62 322.22 617.51 322.22C607.4 322.22 598.26 324.09 589.61 327.83C580.96 331.57 573.42 336.64 566.99 343.05C560.56 349.46 555.47 356.97 551.72 365.59C547.97 374.21 546.09 383.4 546.09 393.17Z" fill="white"/>
<path d="M1388.82 313.2C1378.87 303.14 1367.18 295.23 1353.78 289.4C1340.35 283.6 1325.91 280.68 1310.45 280.68C1294.99 280.68 1280.47 283.62 1266.99 289.51C1253.51 295.42 1241.74 303.47 1231.71 313.66C1221.68 323.85 1213.74 335.78 1207.91 349.39C1202.11 363.03 1199.19 377.61 1199.19 393.06C1199.19 408.51 1202.08 423.09 1207.91 436.73C1213.74 450.37 1221.66 462.24 1231.69 472.35C1241.72 482.49 1253.46 490.48 1266.94 496.39C1280.39 502.27 1294.86 505.22 1310.32 505.22C1323.8 505.22 1336.5 503 1348.46 498.53C1360.39 494.06 1371.19 487.83 1380.82 479.81C1380.62 482.57 1380.64 487.73 1383.17 492.89C1384.57 495.75 1386.25 497.6 1386.59 497.97C1390.28 502.04 1395.04 504.09 1400.9 504.09C1406.76 504.09 1411.68 502.06 1415.69 497.99C1419.7 493.92 1421.68 488.98 1421.68 483.15V391.68C1421.39 376.36 1418.31 361.94 1412.51 348.46C1406.68 334.98 1398.79 323.21 1388.81 313.18L1388.82 313.2ZM1375.67 420.68C1372.06 429.32 1367.09 436.89 1360.75 443.39C1354.39 449.89 1346.92 455 1338.37 458.74C1329.78 462.48 1320.45 464.36 1310.34 464.36C1300.23 464.36 1291.14 462.49 1282.55 458.74C1273.99 455 1266.56 449.89 1260.3 443.39C1254.02 436.89 1249.04 429.32 1245.38 420.68C1241.69 412.04 1239.87 402.84 1239.87 393.05C1239.87 383.26 1241.69 374.06 1245.38 365.42C1249.04 356.78 1254.02 349.27 1260.3 342.85C1266.56 336.43 1273.99 331.35 1282.55 327.61C1291.14 323.87 1300.39 321.99 1310.34 321.99C1320.29 321.99 1329.78 323.86 1338.37 327.61C1346.93 331.35 1354.39 336.44 1360.75 342.85C1367.09 349.27 1372.06 356.78 1375.67 365.42C1379.25 374.06 1381.07 383.29 1381.07 393.05C1381.07 402.81 1379.25 412.04 1375.67 420.68Z" fill="white"/>
<path d="M957.94 347.03C963.4 360.19 966.1 374.2 966.1 389.05V482.5C966.1 488.33 964.17 493.12 960.35 496.86C956.5 500.6 951.71 502.48 946.01 502.48C940.31 502.48 935.47 500.61 931.46 496.86C927.45 493.12 925.47 488.33 925.47 482.5V389.51C925.31 380.18 923.54 371.4 920.17 363.22C916.8 355.04 912.17 347.87 906.29 341.74C900.38 335.62 893.45 330.77 885.51 327.16C877.54 323.58 868.9 321.76 859.57 321.76C850.24 321.76 841.6 323.5 833.73 326.95C825.84 330.37 818.99 335.16 813.16 341.29C807.36 347.41 802.78 354.58 799.49 362.77C796.2 370.95 794.57 379.73 794.57 389.06V482.51C794.57 488.34 792.7 493.13 788.93 496.87C785.19 500.61 780.48 502.49 774.81 502.49C772.08 502.49 769.43 502.01 766.89 501.02C764.38 500 762.16 498.64 760.23 496.87C758.33 495.1 756.81 493.02 755.66 490.56C754.51 488.1 753.92 485.43 753.92 482.51V389.06C753.92 374.22 756.65 360.2 762.08 347.04C767.54 333.88 775 322.38 784.49 312.59C793.98 302.8 805.19 295.07 818.05 289.4C830.94 283.73 844.79 280.9 859.66 280.9C874.53 280.9 888.65 283.73 901.6 289.4C914.54 295.07 925.83 302.8 935.41 312.59C944.98 322.38 952.5 333.88 957.93 347.04L957.94 347.03Z" fill="white"/>
<path d="M1639.82 502.47C1634.12 502.47 1629.28 500.6 1625.27 496.85C1621.28 493.11 1619.28 488.32 1619.28 482.49V389.5C1619.12 380.17 1617.35 371.39 1613.98 363.21C1610.64 355.03 1605.98 347.86 1600.1 341.73C1594.22 335.61 1587.29 330.76 1579.32 327.15C1571.35 323.57 1562.71 321.75 1553.38 321.75C1544.05 321.75 1535.43 323.49 1527.54 326.94C1519.65 330.36 1512.8 335.15 1507 341.28C1501.17 347.4 1496.62 354.57 1493.33 362.76C1490.04 370.94 1488.38 379.72 1488.38 389.05V482.5C1488.38 488.33 1486.51 493.12 1482.76 496.86C1478.99 500.6 1474.31 502.48 1468.64 502.48C1465.89 502.48 1463.24 502 1460.72 501.01C1458.18 499.99 1455.96 498.63 1454.03 496.86C1452.13 495.09 1450.61 493.01 1449.46 490.55C1448.31 488.09 1447.72 485.42 1447.72 482.5V389.05C1447.72 374.21 1450.45 360.19 1455.9 347.03C1461.33 333.87 1468.79 322.37 1478.31 312.58C1487.8 302.79 1498.98 295.06 1511.85 289.39C1524.74 283.72 1538.59 280.89 1553.46 280.89C1568.33 280.89 1582.48 283.72 1595.42 289.39C1608.36 295.06 1619.62 302.79 1629.2 312.58C1638.77 322.37 1646.29 333.87 1651.72 347.03C1657.18 360.19 1659.9 374.2 1659.9 389.05V482.5C1659.9 488.33 1657.97 493.12 1654.12 496.86C1650.27 500.6 1645.48 502.48 1639.78 502.48L1639.82 502.47Z" fill="white"/>
<path d="M1718.29 472.35C1728.32 482.49 1740.06 490.48 1753.54 496.39C1767.02 502.27 1781.49 505.22 1796.95 505.22C1810.4 505.22 1823.13 503 1835.06 498.53C1846.99 494.06 1857.79 487.83 1867.45 479.81C1867.25 482.53 1867.24 487.71 1869.78 492.89C1870.26 493.86 1871.27 495.84 1873.2 497.97C1876.89 502.04 1881.68 504.09 1887.54 504.09C1893.4 504.09 1898.32 502.06 1902.3 497.99C1906.31 493.92 1908.32 488.98 1908.32 483.15V391.68C1908 376.36 1904.95 361.94 1899.12 348.46C1893.29 334.98 1885.4 323.21 1875.45 313.18C1865.47 303.12 1853.79 295.21 1840.39 289.38C1826.99 283.58 1812.55 280.66 1797.06 280.66C1781.57 280.66 1767.11 283.6 1753.63 289.49C1740.12 295.4 1728.38 303.45 1718.33 313.64C1708.3 323.83 1700.36 335.76 1694.55 349.37C1688.72 363.01 1685.8 377.59 1685.8 393.04C1685.8 408.49 1688.72 423.07 1694.52 436.71C1700.35 450.35 1708.27 462.22 1718.3 472.33L1718.29 472.35ZM1731.96 365.43C1735.62 356.79 1740.6 349.28 1746.88 342.86C1753.16 336.44 1760.57 331.36 1769.16 327.62C1777.72 323.88 1787 322 1796.95 322C1806.9 322 1816.39 323.87 1824.95 327.62C1833.53 331.36 1841 336.45 1847.34 342.86C1853.71 349.28 1858.68 356.79 1862.26 365.43C1865.87 374.07 1867.66 383.3 1867.66 393.06C1867.66 402.82 1865.87 412.05 1862.26 420.69C1858.68 429.33 1853.7 436.9 1847.34 443.4C1841 449.9 1833.54 455.01 1824.95 458.75C1816.39 462.49 1807.03 464.37 1796.95 464.37C1786.87 464.37 1777.72 462.5 1769.16 458.75C1760.57 455.01 1753.17 449.9 1746.88 443.4C1740.59 436.9 1735.62 429.33 1731.96 420.69C1728.3 412.05 1726.45 402.85 1726.45 393.06C1726.45 383.27 1728.3 374.07 1731.96 365.43Z" fill="white"/>
<path d="M1184.36 452.64C1185.35 454.94 1185.86 457.48 1185.86 460.24C1185.86 463.29 1185.19 466.39 1183.91 469.52C1182.6 472.68 1180.81 475.38 1178.51 477.68C1168.85 486.88 1157.94 493.75 1145.77 498.35C1133.6 502.92 1120.42 505.22 1106.16 505.22C1090.57 505.22 1075.94 502.39 1062.3 496.74C1048.69 491.07 1036.81 483.26 1026.68 473.31C1016.54 463.36 1008.55 451.65 1002.69 438.17C996.81 424.72 993.89 410.17 993.89 394.55V234.96C993.89 232.21 994.42 229.56 995.49 227.04C996.56 224.5 998.03 222.28 999.93 220.38C1001.83 218.45 1004 216.98 1006.43 215.89C1008.89 214.82 1011.46 214.29 1014.21 214.29C1016.96 214.29 1019.61 214.82 1022.21 215.89C1024.78 216.99 1027.02 218.43 1028.95 220.28C1030.85 222.1 1032.37 224.29 1033.5 226.81C1034.65 229.35 1035.21 232.05 1035.21 234.97V279.98H1126.38C1132.05 279.98 1136.86 282.01 1140.85 286.05C1144.83 290.12 1146.81 294.98 1146.81 300.65C1146.81 306.32 1144.86 310.79 1140.95 314.53C1137.05 318.27 1132.18 320.15 1126.37 320.15H1035.2V395.01C1035.2 404.83 1037.05 413.97 1040.71 422.45C1044.4 430.95 1049.4 438.34 1055.77 444.62C1062.11 450.88 1069.62 455.83 1078.26 459.41C1086.93 463.02 1096.21 464.81 1106.15 464.81C1114.9 464.81 1123.11 463.55 1130.84 461.04C1138.57 458.5 1145.66 454.25 1152.1 448.28C1156.99 443.68 1162.1 441.38 1167.48 441.38C1169.78 441.38 1172.03 441.86 1174.25 442.77C1176.47 443.68 1178.45 444.99 1180.21 446.67C1181.98 448.35 1183.37 450.33 1184.36 452.63V452.64Z" fill="white"/>
<path d="M506.44 116.73C506.44 127.78 497.43 136.76 486.38 136.76H453.64V169.5C453.64 180.55 444.65 189.5 433.66 189.5H433.61C422.56 189.5 413.58 180.54 413.58 169.5V136.76H380.87C369.8 136.76 360.84 127.77 360.84 116.73C360.84 111.41 362.93 106.35 366.72 102.56C370.49 98.79 375.49 96.7 380.87 96.7H413.58V63.94C413.58 52.92 422.57 43.96 433.61 43.96C444.65 43.96 453.64 52.92 453.64 63.94V96.7H486.38C497.43 96.7 506.44 105.69 506.44 116.73Z" fill="white"/>
<path d="M331.8 102.96C335.6 107.24 337.42 112.99 336.75 118.69C335.57 128.8 326.88 136.42 316.53 136.42H316.13C245.55 136.42 179.17 163.91 129.27 213.85C112.82 230.24 98.5899 248.73 87.0099 268.76C63.9799 308.58 51.8099 354.21 51.8099 400.74C51.8099 447.27 63.6599 491.54 86.0399 530.99C88.3099 535 92.4299 537.38 97.0299 537.38C100.35 537.38 103.5 536.07 105.88 533.72L128.35 511.25C132.09 507.51 137.07 505.42 142.34 505.42C149.05 505.42 155.26 508.76 158.92 514.35L159.21 514.75C164.37 522.53 163.36 532.94 156.75 539.52L123.64 572.63C115.91 580.36 105.67 584.61 94.7799 584.61C80.8199 584.61 67.9599 577.63 60.3899 565.94L60.0999 565.49C28.4299 516.44 11.6899 459.47 11.6899 400.74C11.6899 342.01 28.7499 283.89 61.0299 234.47C72.6099 216.74 85.9799 200.26 100.77 185.53C158.3 127.98 234.79 96.2798 316.12 96.2798H317.06C322.65 96.3098 328.03 98.7398 331.8 102.97V102.96Z" fill="#FBB03B"/>
<path d="M481.3 366.79L481.27 484.47C481.27 487.36 480.74 489.98 479.64 492.52C478.54 495.06 477.05 497.25 475.2 499.02C473.27 500.89 471 502.39 468.49 503.54C466.06 504.61 463.49 505.14 460.63 505.14C457.77 505.14 454.96 504.58 452.23 503.46C449.48 502.34 447.07 500.81 445.09 498.97C443.16 497.15 441.59 494.96 440.41 492.42C439.26 489.91 438.7 487.31 438.7 484.48V365.95C438.51 359.61 437.12 353.81 434.61 348.57C432.1 343.35 428.73 338.83 424.58 335.06C420.46 331.34 415.73 328.37 410.49 326.29C405.19 324.18 399.42 323.08 393.32 323.08C387.22 323.08 381.28 324.26 375.72 326.56C370.21 328.83 365.34 331.99 361.22 335.92C357.07 339.85 353.76 344.53 351.35 349.83C348.92 355.18 347.69 361.04 347.69 367.21V484.49C347.69 490.43 345.76 495.27 341.78 499.25C337.8 503.23 332.98 505.16 327.02 505.16C324.13 505.16 321.43 504.63 318.81 503.5C316.08 502.35 313.65 500.8 311.56 498.9C309.55 497.11 308 494.97 306.83 492.43C305.68 489.92 305.12 487.32 305.12 484.49V366.23C304.91 359.92 303.6 354.11 301.19 348.82C298.78 343.5 295.49 338.9 291.4 335.13C287.36 331.36 282.6 328.39 277.23 326.28C271.85 324.17 266.05 323.1 259.98 323.1C253.91 323.1 248.03 324.22 242.57 326.42C237.11 328.64 232.25 331.74 228.13 335.67C224.01 339.63 220.7 344.25 218.29 349.42C215.86 354.69 214.63 360.44 214.63 366.48V484.5C214.63 490.44 212.68 495.28 208.69 499.26C204.71 503.24 199.89 505.17 193.95 505.17C191.03 505.17 188.36 504.64 185.74 503.51C183.01 502.36 180.55 500.81 178.47 498.91C176.46 497.12 174.91 494.98 173.74 492.44C172.59 489.93 172.03 487.33 172.03 484.5V366.24C172.03 354.58 174.36 343.43 178.93 333.1C183.53 322.72 189.9 313.55 197.84 305.85C205.81 298.09 215.22 291.86 225.81 287.32C236.32 282.83 247.55 280.53 259.24 280.53C270.93 280.53 282.99 282.88 293.63 287.56C304.38 292.27 313.93 298.77 322.09 306.9L326.29 311.13L330.49 306.9C338.65 298.77 348.28 292.27 359.16 287.56C369.99 282.91 381.65 280.53 393.85 280.53C406.05 280.53 416.9 282.75 427.17 287.08C437.49 291.47 446.67 297.56 454.48 305.19C462.29 312.87 468.63 321.91 473.33 332.07C477.98 342.21 480.6 353.2 481.06 364.73C481.06 365.24 481.14 366.04 481.33 366.84L481.3 366.79Z" fill="white"/>
<path d="M1472.31 611.07C1479.6 609.15 1486.25 609.39 1492.82 611.4C1496.95 612.66 1497.41 613.68 1495.49 617.46C1493.32 621.72 1491.08 625.95 1488.91 630.21C1488.04 631.93 1486.82 632.88 1484.91 631.96C1475.6 627.47 1466.25 629.1 1456.88 631.69C1450.87 633.35 1445.37 636.46 1439.1 637.48C1413.69 641.65 1389.96 622.43 1389 596.73C1388.14 573.61 1404.29 554.83 1427.65 551.8C1449.05 549.02 1469.8 564.17 1474.49 586.01C1476.28 594.35 1475.43 602.5 1472.31 611.08V611.07ZM1432.16 579.15C1437.22 579.13 1441.29 575.07 1441.28 570.02C1441.28 565.07 1437.01 560.93 1432 561.01C1426.92 561.09 1423.01 565.18 1423.09 570.33C1423.17 575.25 1427.19 579.17 1432.16 579.15ZM1419.79 582.59C1419.87 577.45 1415.98 573.42 1410.86 573.34C1405.88 573.26 1401.64 577.41 1401.62 582.39C1401.6 587.26 1405.62 591.36 1410.51 591.46C1415.69 591.56 1419.71 587.71 1419.79 582.59ZM1462.61 582.38C1462.61 577.48 1458.59 573.41 1453.7 573.35C1448.67 573.3 1444.45 577.4 1444.43 582.36C1444.41 587.42 1448.47 591.48 1453.55 591.48C1458.67 591.48 1462.61 587.52 1462.61 582.37V582.38ZM1453.46 616.18C1458.62 616.23 1462.58 612.31 1462.58 607.16C1462.58 602.08 1458.48 597.97 1453.47 598.03C1448.64 598.08 1444.5 602.18 1444.41 607C1444.32 612.01 1448.39 616.14 1453.46 616.18ZM1419.78 607.14C1419.78 602.02 1415.8 598.02 1410.69 598C1405.82 597.98 1401.53 602.35 1401.61 607.24C1401.69 612.18 1405.66 616.09 1410.64 616.14C1415.79 616.19 1419.78 612.26 1419.78 607.14ZM1432.14 628.51C1437.23 628.51 1441.35 624.4 1441.27 619.41C1441.19 614.55 1437.14 610.46 1432.29 610.36C1427.29 610.26 1423.13 614.36 1423.11 619.4C1423.09 624.59 1426.98 628.51 1432.15 628.51H1432.14ZM1490.3 616.19C1487.1 615.1 1484.17 614.76 1481.02 615.02C1479.59 618.01 1478.16 620.97 1476.68 624.06C1479.64 624.78 1482.42 625.45 1485.22 626.13C1486.96 622.72 1488.59 619.55 1490.3 616.19ZM1432.1 599.55C1434.62 599.58 1436.73 597.53 1436.81 594.98C1436.9 592.2 1434.93 590.13 1432.18 590.11C1429.51 590.09 1427.36 592.24 1427.4 594.9C1427.44 597.35 1429.62 599.52 1432.1 599.55ZM1470.98 623.97C1472.21 621.39 1473.39 618.89 1474.72 616.09C1468.95 616.86 1466.55 620.78 1463.71 624.66C1466.2 624.43 1468.38 624.22 1470.98 623.98V623.97Z" fill="#FBB03B"/>
<path d="M1524.72 595.14C1524.72 597.16 1525.14 599.16 1525.98 601.14C1526.82 603.12 1527.96 604.89 1529.4 606.46C1530.84 608.03 1532.53 609.31 1534.46 610.3C1536.4 611.29 1538.48 611.81 1540.72 611.85C1543.04 611.85 1545.09 611.56 1546.88 610.98C1548.66 610.4 1550.46 609.36 1552.27 607.85C1553.13 607.12 1554.09 606.44 1555.14 605.82C1556.19 605.2 1557.34 604.88 1558.59 604.88C1559.32 604.88 1560.09 605.04 1560.91 605.36C1561.73 605.68 1562.57 606.21 1563.43 606.94C1564.16 607.59 1564.71 608.35 1565.08 609.23C1565.44 610.11 1565.62 611.04 1565.59 612C1565.57 612.97 1565.35 613.93 1564.95 614.87C1564.54 615.82 1563.93 616.72 1563.11 617.58C1560.44 620.29 1557.27 622.35 1553.6 623.77C1549.92 625.19 1546.06 625.9 1542.02 625.9C1537.72 625.9 1533.68 625.12 1529.9 623.55C1526.11 621.98 1522.8 619.82 1519.97 617.07C1517.13 614.32 1514.89 611.08 1513.26 607.36C1511.63 603.64 1510.81 599.63 1510.81 595.33C1510.85 595.29 1510.88 595.24 1510.88 595.2H1510.81C1510.81 590.9 1511.63 586.87 1513.26 583.11C1514.89 579.35 1517.13 576.08 1519.97 573.31C1522.81 570.54 1526.12 568.35 1529.9 566.76C1533.68 565.17 1537.72 564.37 1542.02 564.37C1546.06 564.37 1549.92 565.05 1553.6 566.4C1557.28 567.75 1560.45 569.79 1563.11 572.49C1563.93 573.31 1564.55 574.2 1564.98 575.17C1565.41 576.14 1565.64 577.1 1565.66 578.07C1565.68 579.04 1565.5 579.96 1565.11 580.84C1564.72 581.72 1564.14 582.51 1563.37 583.19C1562.51 583.92 1561.69 584.44 1560.92 584.74C1560.15 585.04 1559.39 585.19 1558.66 585.19C1557.41 585.19 1556.26 584.88 1555.21 584.25C1554.16 583.63 1553.18 582.95 1552.28 582.22C1550.47 580.84 1548.69 579.86 1546.93 579.25C1545.17 578.65 1543.32 578.35 1541.38 578.35C1539.19 578.35 1537.08 578.8 1535.06 579.71C1533.04 580.61 1531.27 581.84 1529.77 583.39C1528.27 584.94 1527.06 586.72 1526.16 588.74C1525.26 590.76 1524.81 592.87 1524.81 595.06L1524.74 595.13L1524.72 595.14Z" fill="#FBB03B"/>
<path d="M1579.17 550.89C1579.17 549.82 1579.37 548.81 1579.78 547.86C1580.19 546.92 1580.74 546.1 1581.42 545.41C1582.11 544.72 1582.92 544.17 1583.87 543.77C1584.81 543.36 1585.8 543.16 1586.84 543.16C1587.88 543.16 1588.86 543.37 1589.81 543.77C1590.76 544.18 1591.58 544.73 1592.29 545.41C1593 546.1 1593.56 546.92 1593.97 547.86C1594.38 548.81 1594.58 549.82 1594.58 550.89C1594.58 551.96 1594.38 552.9 1593.97 553.83C1593.56 554.75 1593 555.56 1592.29 556.25C1591.58 556.94 1590.75 557.49 1589.81 557.9C1588.86 558.31 1587.87 558.51 1586.84 558.51C1585.81 558.51 1584.82 558.31 1583.87 557.9C1582.92 557.49 1582.11 556.94 1581.42 556.25C1580.73 555.56 1580.18 554.76 1579.78 553.83C1579.37 552.91 1579.17 551.93 1579.17 550.89ZM1593.87 618.16C1593.87 619.11 1593.69 620.01 1593.32 620.87C1592.95 621.73 1592.46 622.47 1591.84 623.1C1591.22 623.72 1590.49 624.22 1589.65 624.58C1588.81 624.95 1587.9 625.13 1586.91 625.13C1585.92 625.13 1585.06 624.95 1584.2 624.58C1583.34 624.22 1582.59 623.72 1581.94 623.1C1581.29 622.48 1580.79 621.74 1580.42 620.87C1580.05 620.01 1579.87 619.11 1579.87 618.16V572.11C1579.87 571.16 1580.06 570.27 1580.45 569.43C1580.84 568.59 1581.35 567.85 1582 567.2C1582.65 566.56 1583.4 566.05 1584.26 565.68C1585.12 565.31 1586.04 565.13 1587.03 565.13C1588.02 565.13 1588.92 565.31 1589.74 565.68C1590.56 566.05 1591.28 566.55 1591.9 567.2C1592.52 567.85 1593.01 568.59 1593.35 569.43C1593.69 570.27 1593.87 571.16 1593.87 572.11V618.16Z" fill="#FBB03B"/>
<path d="M1668.11 618.36C1668.11 619.35 1667.93 620.26 1667.56 621.1C1667.19 621.94 1666.71 622.67 1666.11 623.29C1665.51 623.91 1664.79 624.4 1663.95 624.74C1663.11 625.08 1662.22 625.26 1661.27 625.26C1660.32 625.26 1659.41 625.09 1658.53 624.74C1657.65 624.4 1656.89 623.91 1656.24 623.29C1655.59 622.67 1655.08 621.93 1654.69 621.1C1654.3 620.26 1654.11 619.35 1654.11 618.36V594.37C1654.11 594.03 1654.13 593.77 1654.18 593.6C1654.09 591.49 1653.66 589.51 1652.89 587.66C1652.12 585.81 1651.06 584.2 1649.73 582.82C1648.4 581.44 1646.84 580.36 1645.05 579.56C1643.27 578.76 1641.3 578.37 1639.15 578.37C1637 578.37 1634.93 578.77 1633.09 579.56C1631.24 580.36 1629.66 581.46 1628.35 582.88C1627.04 584.3 1626.01 585.97 1625.25 587.88C1624.5 589.79 1624.12 591.85 1624.12 594.04V618.36C1624.12 619.35 1623.95 620.26 1623.6 621.1C1623.26 621.94 1622.77 622.67 1622.15 623.29C1621.53 623.91 1620.8 624.4 1619.99 624.74C1619.17 625.08 1618.27 625.26 1617.28 625.26C1616.29 625.26 1615.43 625.09 1614.57 624.74C1613.71 624.4 1612.95 623.91 1612.28 623.29C1611.61 622.67 1611.09 621.93 1610.7 621.1C1610.31 620.26 1610.12 619.35 1610.12 618.36V594.04C1610.12 589.91 1610.86 586.05 1612.35 582.46C1613.83 578.87 1615.87 575.73 1618.48 573.04C1621.08 570.35 1624.16 568.24 1627.7 566.69C1631.25 565.14 1635.06 564.37 1639.15 564.37C1643.24 564.37 1647.1 565.15 1650.63 566.69C1654.16 568.24 1657.21 570.36 1659.79 573.04C1662.37 575.73 1664.4 578.87 1665.88 582.46C1667.36 586.05 1668.11 589.91 1668.11 594.04V618.36Z" fill="#FBB03B"/>
<path d="M1695.26 601.39C1695.82 602.98 1696.6 604.43 1697.61 605.74C1698.62 607.05 1699.79 608.17 1701.12 609.09C1702.45 610.01 1703.92 610.73 1705.51 611.22C1707.1 611.72 1708.78 611.96 1710.54 611.96C1714.97 611.96 1718.45 610.8 1720.99 608.48C1721.85 607.88 1722.69 607.44 1723.51 607.16C1724.33 606.88 1725.1 606.74 1725.83 606.74C1727.03 606.74 1728.11 607.05 1729.06 607.68C1730.01 608.3 1730.78 609.11 1731.38 610.1C1731.81 610.79 1732.12 611.53 1732.32 612.32C1732.51 613.12 1732.56 613.92 1732.45 614.74C1732.34 615.56 1732.08 616.36 1731.68 617.16C1731.27 617.96 1730.66 618.68 1729.84 619.32C1728.89 620.18 1727.82 621.01 1726.61 621.8C1725.41 622.6 1724.02 623.29 1722.45 623.9C1720.88 624.5 1719.12 624.99 1717.16 625.35C1715.2 625.71 1713 625.9 1710.55 625.9C1706.29 625.9 1702.29 625.09 1698.55 623.48C1694.81 621.87 1691.54 619.67 1688.75 616.87C1685.95 614.07 1683.74 610.82 1682.11 607.1C1680.48 603.38 1679.66 599.39 1679.66 595.13C1679.66 590.87 1680.48 586.87 1682.11 583.13C1683.74 579.39 1685.96 576.13 1688.75 573.36C1691.55 570.59 1694.81 568.39 1698.55 566.78C1702.29 565.17 1706.29 564.36 1710.55 564.36C1714.81 564.36 1718.73 565.16 1722.45 566.75C1726.17 568.34 1729.44 570.5 1732.25 573.23C1735.07 575.96 1737.3 579.18 1738.96 582.87C1740.61 586.57 1741.46 590.52 1741.51 594.74C1741.51 596.72 1740.87 598.32 1739.61 599.55C1738.34 600.78 1736.67 601.39 1734.61 601.39H1695.27H1695.26ZM1727.13 589.78C1726.66 588.02 1725.92 586.43 1724.9 585.01C1723.89 583.59 1722.67 582.39 1721.26 581.4C1719.84 580.41 1718.25 579.66 1716.49 579.14C1714.73 578.62 1712.86 578.36 1710.88 578.36C1708.9 578.36 1707.04 578.63 1705.3 579.17C1703.56 579.71 1701.99 580.48 1700.59 581.49C1699.19 582.5 1698 583.71 1697.01 585.1C1696.02 586.5 1695.29 588.06 1694.82 589.78H1727.13Z" fill="#FBB03B"/>
<path d="M1766.8 618.29C1766.8 620.23 1766.14 621.85 1764.83 623.16C1763.52 624.47 1761.89 625.13 1759.96 625.13C1759.01 625.13 1758.11 624.95 1757.25 624.58C1756.39 624.22 1755.63 623.73 1754.96 623.13C1754.29 622.53 1753.77 621.81 1753.38 620.97C1752.99 620.13 1752.8 619.24 1752.8 618.29V587.91C1752.8 584.68 1753.43 581.64 1754.7 578.78C1755.97 575.92 1757.7 573.43 1759.89 571.3C1762.08 569.17 1764.63 567.49 1767.53 566.24C1770.43 564.99 1773.5 564.37 1776.72 564.37C1779.94 564.37 1783.22 565.02 1786.17 566.31C1789.11 567.6 1791.71 569.36 1793.94 571.6C1796.18 569.36 1798.79 567.6 1801.78 566.31C1804.77 565.02 1807.94 564.37 1811.29 564.37C1814.64 564.37 1817.61 564.97 1820.45 566.18C1823.29 567.38 1825.78 569.04 1827.93 571.15C1830.08 573.26 1831.8 575.71 1833.09 578.5C1834.38 581.3 1835.09 584.28 1835.22 587.47C1835.22 587.56 1835.23 587.65 1835.25 587.76C1835.27 587.87 1835.28 587.96 1835.28 588.05V618.3C1835.28 619.25 1835.1 620.14 1834.73 620.98C1834.36 621.82 1833.87 622.54 1833.25 623.14C1832.63 623.74 1831.91 624.23 1831.09 624.59C1830.27 624.96 1829.39 625.14 1828.45 625.14C1827.51 625.14 1826.59 624.96 1825.71 624.59C1824.83 624.23 1824.07 623.74 1823.42 623.14C1822.77 622.54 1822.26 621.82 1821.87 620.98C1821.48 620.14 1821.29 619.25 1821.29 618.3V587.86C1821.25 586.48 1820.95 585.22 1820.39 584.05C1819.83 582.89 1819.09 581.89 1818.16 581.05C1817.24 580.21 1816.18 579.56 1815 579.08C1813.82 578.61 1812.54 578.37 1811.16 578.37C1809.78 578.37 1808.47 578.63 1807.23 579.15C1805.98 579.66 1804.9 580.36 1803.97 581.25C1803.04 582.13 1802.31 583.16 1801.78 584.35C1801.24 585.53 1800.97 586.81 1800.97 588.19V618.31C1800.97 620.25 1800.31 621.87 1799 623.18C1797.69 624.49 1796.07 625.15 1794.13 625.15C1793.18 625.15 1792.28 624.97 1791.42 624.6C1790.56 624.24 1789.8 623.75 1789.13 623.15C1788.46 622.55 1787.94 621.83 1787.55 620.99C1787.16 620.15 1786.97 619.26 1786.97 618.31V587.93C1786.93 586.55 1786.64 585.28 1786.1 584.09C1785.56 582.91 1784.84 581.9 1783.94 581.06C1783.04 580.22 1781.98 579.57 1780.78 579.09C1779.58 578.62 1778.29 578.38 1776.91 578.38C1775.53 578.38 1774.23 578.63 1773.01 579.12C1771.78 579.61 1770.71 580.3 1769.78 581.18C1768.85 582.06 1768.12 583.08 1767.59 584.24C1767.05 585.4 1766.78 586.65 1766.78 587.98V618.3L1766.8 618.29Z" fill="#FBB03B"/>
<path d="M1846.84 595.14C1846.84 590.88 1847.66 586.89 1849.29 583.17C1850.92 579.45 1853.14 576.19 1855.93 573.4C1858.73 570.6 1861.98 568.4 1865.7 566.79C1869.42 565.18 1873.39 564.37 1877.6 564.37C1881.81 564.37 1885.86 565.18 1889.6 566.79C1893.34 568.4 1896.6 570.61 1899.37 573.4C1902.14 576.2 1904.33 579.45 1905.92 583.17C1907.51 586.89 1908.31 590.88 1908.31 595.14V617.97C1908.31 618.96 1908.13 619.88 1907.76 620.74C1907.39 621.6 1906.89 622.35 1906.24 623C1905.59 623.64 1904.83 624.16 1903.95 624.55C1903.07 624.94 1902.13 625.13 1901.14 625.13C1899.46 625.13 1898.04 624.64 1896.88 623.65C1895.72 622.66 1894.94 621.42 1894.56 619.91C1892.11 621.76 1889.45 623.22 1886.59 624.3C1883.73 625.37 1880.73 625.91 1877.59 625.91C1873.38 625.91 1869.41 625.1 1865.69 623.49C1861.97 621.88 1858.71 619.68 1855.92 616.88C1853.12 614.08 1850.91 610.82 1849.28 607.08C1847.65 603.34 1846.83 599.36 1846.83 595.15L1846.84 595.14ZM1860.84 595.14C1860.84 597.42 1861.28 599.58 1862.16 601.62C1863.04 603.66 1864.24 605.45 1865.77 606.97C1867.3 608.5 1869.07 609.7 1871.09 610.58C1873.11 611.46 1875.28 611.9 1877.6 611.9C1879.92 611.9 1882.1 611.46 1884.15 610.58C1886.19 609.7 1887.96 608.49 1889.47 606.97C1890.97 605.44 1892.16 603.66 1893.02 601.62C1893.88 599.58 1894.31 597.42 1894.31 595.14C1894.31 592.86 1893.88 590.64 1893.02 588.59C1892.16 586.55 1890.98 584.78 1889.47 583.27C1887.96 581.77 1886.19 580.57 1884.15 579.69C1882.11 578.81 1879.92 578.37 1877.6 578.37C1875.28 578.37 1873.16 578.81 1871.12 579.69C1869.08 580.57 1867.29 581.76 1865.77 583.27C1864.24 584.78 1863.04 586.55 1862.16 588.59C1861.28 590.63 1860.84 592.82 1860.84 595.14Z" fill="#FBB03B"/>
</svg>
