<svg width="167" height="46" viewBox="0 0 167 46" fill="none" xmlns="http://www.w3.org/2000/svg">
<path d="M32.4994 0.403895C32.2585 0.645562 32.0779 1.49139 32.0779 2.2164C32.0779 3.24348 31.6564 3.60598 30.452 3.78723C27.983 4.0289 27.8626 5.96223 30.2111 6.44556C31.5961 6.74765 32.0779 7.17056 32.1983 8.43931C32.4392 10.6747 34.7275 10.6747 34.9684 8.3789C35.149 7.11015 35.5103 6.74765 36.7749 6.5664C37.9191 6.44556 38.4008 6.02265 38.4008 5.17681C38.4008 4.33098 37.9191 3.90806 36.7749 3.78723C35.5103 3.60598 35.149 3.24348 34.9684 1.97473C34.7877 0.403895 33.4027 -0.441939 32.4994 0.403895Z" fill="white"/>
<path d="M17.9269 4.14988C4.13692 8.9228 -2.72799 22.6374 1.7884 36.2915C2.87233 39.4332 6.18434 44.7499 7.08762 44.7499C7.44893 44.7499 8.89418 43.602 10.219 42.152L12.7482 39.6145L11.604 38.104L10.4599 36.5936L8.95439 38.0436L7.38871 39.4936L6.06391 36.5332C4.91976 34.1165 4.67888 32.5457 4.67888 27.8332C4.67888 22.4561 4.79932 21.852 6.72631 18.2874C10.2792 11.702 16.4817 7.4728 23.5273 6.86863C26.7791 6.56655 26.9597 6.44571 27.0801 4.81446C27.2006 3.06238 27.1404 3.06238 24.0692 3.06238C22.3229 3.1228 19.5528 3.54571 17.9269 4.14988Z" fill="white"/>
<path d="M84.7095 13.5147C84.5288 14.0584 84.4686 18.2272 84.589 22.8188C84.7697 31.9417 85.2514 33.2105 88.8645 35.3855C91.1528 36.7147 96.0305 36.7751 98.078 35.4459C101.45 33.2105 100.366 30.5522 96.8134 32.2438C93.8024 33.6938 91.9959 33.5126 89.828 31.5792C88.2021 30.1292 87.901 29.4042 87.6602 25.8397L87.2989 21.7917H91.2131C98.7404 21.7917 99.2823 18.348 91.8152 18.0459L87.7806 17.8647L87.4795 15.448C87.1784 12.9709 85.4321 11.7022 84.7095 13.5147Z" fill="white"/>
<path d="M30.8739 23.3021L25.1532 29.0417L19.7335 23.6042C16.7226 20.6437 14.1332 18.1667 13.9525 18.1667C13.7116 18.1667 12.989 19.5562 12.2664 21.2479C10.3996 25.5979 10.4599 30.4917 12.4471 34.8417L14.0127 38.2854L15.5182 36.8958L16.9634 35.5062L15.8193 33.2104C15.0365 31.7 14.6149 29.7062 14.6149 27.4104V23.9062L19.9141 29.2229L25.1532 34.4792L30.2717 29.3437C33.102 26.5042 35.5709 24.2083 35.8118 24.2083C36.7753 24.2083 36.2333 30.6125 35.1494 33.0896L34.0053 35.5667L35.4505 36.9562L36.8958 38.2854L38.4614 34.8417C40.5691 30.1896 40.5691 25.5375 38.5216 20.9458C37.6786 19.0729 36.8958 17.5625 36.7753 17.5625C36.6549 17.5625 34.0053 20.1604 30.8739 23.3021Z" fill="white"/>
<path d="M48.5786 19.0126C42.075 21.973 41.533 31.7001 47.6151 35.2647C51.5895 37.6209 57.1296 36.4126 59.8394 32.5459C61.7062 29.948 61.8266 24.9938 60.0201 22.6376C57.1296 18.7105 52.4326 17.2605 48.5786 19.0126ZM56.2263 23.5438C59.4179 26.8063 57.9727 31.8813 53.5165 33.0292C50.084 33.8751 46.5312 30.7334 46.5312 26.9272C46.5312 24.5105 49.5421 21.7917 52.2519 21.7917C53.8778 21.7917 54.9015 22.2751 56.2263 23.5438Z" fill="white"/>
<path d="M68.8119 19.2543C67.6678 19.7981 66.1021 21.2481 65.3193 22.3356C64.1149 24.2085 63.9945 25.0543 64.1149 30.1898C64.2956 35.5064 64.416 35.9898 65.4999 35.9898C66.5839 35.9898 66.7645 35.446 67.0656 30.3106C67.3667 25.0543 67.5474 24.5106 69.0528 23.1814C71.2809 21.2481 74.1714 21.3085 76.0984 23.3627C77.363 24.6918 77.6038 25.6585 77.8447 30.4314C78.1458 35.6273 78.2662 35.9898 79.4706 36.171C81.2169 36.4127 81.6987 34.5398 81.3374 28.8002C80.9761 23.6043 79.7717 21.2481 76.6403 19.4356C73.8703 17.8648 71.582 17.8043 68.8119 19.2543Z" fill="white"/>
<path d="M107.051 19.0131C102.353 21.1276 100.366 26.3839 102.414 31.036C104.401 35.5068 109.038 37.561 113.614 35.9901C115.18 35.4464 116.264 35.3256 116.625 35.6881C116.987 36.0506 117.709 36.2922 118.311 36.2922C119.757 36.2922 120.238 34.1172 119.877 29.0422C119.395 22.4568 116.565 18.8922 111.507 18.4089C110.001 18.2276 108.074 18.5297 107.051 19.0131ZM114.156 23.0006C117.227 25.4172 116.746 30.6131 113.313 32.3651C111.266 33.4526 110.302 33.5131 108.255 32.5464C104.762 30.9756 103.979 26.3235 106.689 23.5443C108.857 21.4297 111.868 21.1881 114.156 23.0006Z" fill="white"/>
<path d="M127.344 19.1328C123.61 21.0661 122.707 23.1203 122.707 29.9474V35.989H124.212C125.718 35.989 125.718 35.9286 126.019 30.0682C126.26 24.6911 126.441 23.9661 127.765 22.939C129.753 21.3078 132.944 21.4286 134.751 23.3015C136.136 24.6307 136.256 25.2349 136.256 29.7661C136.256 35.264 136.738 36.5328 138.424 36.1703C139.448 35.989 139.568 35.3244 139.749 30.5515C139.93 24.5099 139.026 21.9119 136.196 19.7974C133.968 18.1661 129.813 17.864 127.344 19.1328Z" fill="white"/>
<path d="M147.999 19.0127C143.783 20.8252 141.495 25.8398 142.82 30.2502C144.385 35.5668 150.347 37.8627 156.188 35.3856C156.79 35.2043 157.393 35.2648 157.634 35.6273C157.814 35.9898 158.537 36.2918 159.199 36.2918C160.223 36.2918 160.343 35.8085 160.343 30.3106C160.343 25.1752 160.163 24.1481 159.019 22.396C156.429 18.6502 151.973 17.2606 147.999 19.0127ZM155.225 23.2418C157.272 25.296 157.634 27.3502 156.429 29.8273C153.84 35.3252 145.891 33.4523 145.891 27.4106C145.891 22.6981 151.973 19.9793 155.225 23.2418Z" fill="white"/>
<path d="M162.753 38.0437C159.079 41.8499 156.55 42.9374 151.371 42.9374C147.939 42.9374 144.868 41.8499 141.917 39.6145C138.545 37.077 136.497 38.2249 139.448 41.0041C144.085 45.2937 152.215 46.7437 157.514 44.2062C160.464 42.7562 164.8 38.7083 166.125 36.1103C167.45 33.6937 166.426 34.2374 162.753 38.0437Z" fill="white"/>
</svg>
