<svg width="1920" height="682" viewBox="0 0 1920 682" fill="none" xmlns="http://www.w3.org/2000/svg">
<path d="M503.19 383.97C503.19 368.44 506.15 353.82 512.07 340.13C517.99 326.44 526.07 314.48 536.3 304.25C546.53 294.02 558.46 285.95 572.07 280.02C585.68 274.1 600.26 271.14 615.8 271.14C631.34 271.14 646.18 274.11 659.88 280.02C673.57 285.95 685.49 294.02 695.65 304.25C705.8 314.48 713.8 326.45 719.65 340.13C725.49 353.82 728.42 368.44 728.42 383.97C728.42 399.5 725.49 414.13 719.65 427.82C713.81 441.51 705.8 453.44 695.65 463.59C685.49 473.74 673.57 481.79 659.88 487.7C646.19 493.63 631.5 496.59 615.8 496.59C600.1 496.59 585.69 493.63 572.07 487.7C558.45 481.78 546.53 473.74 536.3 463.59C526.07 453.44 517.99 441.52 512.07 427.82C506.15 414.13 503.19 399.51 503.19 383.97ZM544.03 383.97C544.03 393.78 545.91 403.03 549.68 411.69C553.45 420.36 558.56 427.94 565.03 434.46C571.49 440.98 579.07 446.11 587.76 449.87C596.45 453.63 605.79 455.51 615.8 455.51C625.81 455.51 635.38 453.63 644.07 449.87C652.76 446.12 660.34 440.98 666.8 434.46C673.26 427.94 678.34 420.36 682.03 411.69C685.73 403.02 687.57 393.78 687.57 383.97C687.57 374.16 685.73 364.92 682.03 356.25C678.34 347.59 673.26 340.04 666.8 333.6C660.34 327.16 652.76 322.06 644.07 318.3C635.38 314.54 625.96 312.66 615.8 312.66C605.64 312.66 596.45 314.54 587.76 318.3C579.07 322.05 571.49 327.16 565.03 333.6C558.57 340.04 553.45 347.59 549.68 356.25C545.91 364.92 544.03 374.15 544.03 383.97Z" fill="white"/>
<path d="M1390.96 303.59C1380.96 293.48 1369.22 285.53 1355.75 279.67C1342.26 273.84 1327.74 270.91 1312.21 270.91C1296.68 270.91 1282.08 273.87 1268.53 279.78C1254.98 285.72 1243.16 293.81 1233.08 304.05C1223 314.29 1215.02 326.28 1209.16 339.96C1203.33 353.67 1200.4 368.32 1200.4 383.85C1200.4 399.38 1203.3 414.03 1209.16 427.74C1215.02 441.45 1222.97 453.38 1233.05 463.54C1243.13 473.73 1254.93 481.76 1268.48 487.7C1282 493.61 1296.54 496.57 1312.08 496.57C1325.63 496.57 1338.39 494.34 1350.41 489.85C1362.4 485.36 1373.26 479.1 1382.93 471.04C1382.73 473.81 1382.75 478.99 1385.29 484.19C1386.7 487.07 1388.39 488.92 1388.73 489.3C1392.44 493.39 1397.22 495.45 1403.11 495.45C1409 495.45 1413.94 493.41 1417.97 489.32C1422 485.23 1423.99 480.26 1423.99 474.4V382.48C1423.69 367.08 1420.6 352.59 1414.77 339.05C1408.91 325.5 1400.98 313.68 1390.96 303.6V303.59ZM1377.74 411.61C1374.11 420.29 1369.11 427.9 1362.74 434.43C1356.34 440.96 1348.84 446.1 1340.24 449.86C1331.61 453.62 1322.23 455.5 1312.07 455.5C1301.91 455.5 1292.77 453.62 1284.14 449.86C1275.54 446.1 1268.07 440.96 1261.78 434.43C1255.46 427.9 1250.46 420.29 1246.78 411.61C1243.07 402.93 1241.24 393.68 1241.24 383.85C1241.24 374.02 1243.07 364.77 1246.78 356.09C1250.46 347.41 1255.46 339.86 1261.78 333.41C1268.07 326.96 1275.54 321.85 1284.14 318.09C1292.77 314.33 1302.07 312.45 1312.07 312.45C1322.07 312.45 1331.61 314.33 1340.24 318.09C1348.84 321.85 1356.34 326.96 1362.74 333.41C1369.11 339.86 1374.11 347.41 1377.74 356.09C1381.34 364.77 1383.17 374.04 1383.17 383.85C1383.17 393.66 1381.34 402.93 1377.74 411.61Z" fill="white"/>
<path d="M957.93 337.59C963.41 350.81 966.13 364.9 966.13 379.82V473.73C966.13 479.59 964.19 484.4 960.35 488.16C956.48 491.92 951.67 493.8 945.94 493.8C940.21 493.8 935.35 491.92 931.32 488.16C927.29 484.4 925.3 479.59 925.3 473.73V380.28C925.14 370.9 923.36 362.08 919.98 353.86C916.59 345.64 911.94 338.43 906.03 332.28C900.09 326.13 893.13 321.26 885.15 317.63C877.14 314.03 868.46 312.2 859.08 312.2C849.7 312.2 841.02 313.95 833.12 317.41C825.19 320.85 818.31 325.66 812.45 331.82C806.62 337.97 802.02 345.18 798.72 353.4C795.41 361.62 793.77 370.44 793.77 379.82V473.73C793.77 479.59 791.89 484.4 788.1 488.16C784.34 491.92 779.61 493.8 773.91 493.8C771.17 493.8 768.51 493.32 765.95 492.32C763.42 491.3 761.19 489.93 759.26 488.15C757.35 486.38 755.82 484.28 754.66 481.81C753.5 479.34 752.91 476.65 752.91 473.72V379.81C752.91 364.89 755.65 350.81 761.11 337.58C766.59 324.36 774.09 312.8 783.63 302.96C793.17 293.12 804.43 285.36 817.36 279.66C830.32 273.96 844.24 271.11 859.18 271.11C874.12 271.11 888.32 273.96 901.32 279.66C914.33 285.36 925.67 293.13 935.29 302.96C944.91 312.8 952.47 324.35 957.92 337.58L957.93 337.59Z" fill="white"/>
<path d="M1643.21 493.8C1637.48 493.8 1632.62 491.92 1628.59 488.16C1624.58 484.4 1622.57 479.59 1622.57 473.73V380.28C1622.41 370.9 1620.63 362.08 1617.25 353.86C1613.89 345.64 1609.21 338.43 1603.3 332.28C1597.39 326.13 1590.43 321.26 1582.42 317.63C1574.41 314.03 1565.73 312.2 1556.35 312.2C1546.97 312.2 1538.32 313.95 1530.39 317.41C1522.46 320.85 1515.58 325.66 1509.75 331.82C1503.89 337.97 1499.32 345.18 1496.02 353.4C1492.71 361.62 1491.05 370.44 1491.05 379.82V473.73C1491.05 479.59 1489.17 484.4 1485.41 488.16C1481.62 491.92 1476.92 493.8 1471.22 493.8C1468.45 493.8 1465.79 493.32 1463.26 492.32C1460.71 491.3 1458.48 489.93 1456.54 488.15C1454.63 486.38 1453.1 484.28 1451.94 481.81C1450.78 479.34 1450.19 476.65 1450.19 473.72V379.81C1450.19 364.89 1452.93 350.81 1458.41 337.58C1463.87 324.36 1471.37 312.8 1480.93 302.96C1490.47 293.12 1501.71 285.36 1514.63 279.66C1527.59 273.96 1541.51 271.11 1556.45 271.11C1571.39 271.11 1585.61 273.96 1598.62 279.66C1611.63 285.36 1622.94 293.13 1632.57 302.96C1642.19 312.8 1649.74 324.35 1655.2 337.58C1660.68 350.8 1663.42 364.89 1663.42 379.81V473.72C1663.42 479.58 1661.48 484.39 1657.61 488.15C1653.74 491.91 1648.93 493.79 1643.2 493.79L1643.21 493.8Z" fill="white"/>
<path d="M1722.07 463.54C1732.15 473.73 1743.95 481.76 1757.5 487.7C1771.05 493.61 1785.59 496.57 1801.12 496.57C1814.64 496.57 1827.43 494.34 1839.42 489.85C1851.41 485.36 1862.27 479.1 1871.97 471.04C1871.77 473.77 1871.76 478.98 1874.31 484.19C1874.79 485.17 1875.81 487.15 1877.75 489.29C1881.46 493.38 1886.27 495.44 1892.16 495.44C1898.05 495.44 1902.99 493.4 1907 489.31C1911.03 485.22 1913.05 480.25 1913.05 474.39V382.47C1912.73 367.07 1909.66 352.58 1903.8 339.04C1897.94 325.49 1890.01 313.67 1880.01 303.59C1869.98 293.48 1858.24 285.53 1844.77 279.67C1831.3 273.84 1816.79 270.91 1801.23 270.91C1785.67 270.91 1771.13 273.87 1757.58 279.78C1744.01 285.72 1732.21 293.81 1722.1 304.05C1712.02 314.29 1704.04 326.28 1698.21 339.96C1692.35 353.67 1689.42 368.32 1689.42 383.85C1689.42 399.38 1692.35 414.03 1698.18 427.74C1704.04 441.45 1712 453.38 1722.07 463.54ZM1735.8 356.08C1739.48 347.4 1744.48 339.85 1750.8 333.4C1757.12 326.95 1764.56 321.84 1773.19 318.08C1781.79 314.32 1791.12 312.44 1801.12 312.44C1811.12 312.44 1820.66 314.32 1829.26 318.08C1837.89 321.84 1845.39 326.95 1851.76 333.4C1858.16 339.85 1863.16 347.4 1866.76 356.08C1870.39 364.76 1872.19 374.03 1872.19 383.84C1872.19 393.65 1870.39 402.92 1866.76 411.6C1863.16 420.28 1858.16 427.89 1851.76 434.42C1845.39 440.95 1837.89 446.09 1829.26 449.85C1820.66 453.61 1811.25 455.49 1801.12 455.49C1790.99 455.49 1781.79 453.61 1773.19 449.85C1764.56 446.09 1757.12 440.95 1750.8 434.42C1744.48 427.89 1739.48 420.28 1735.8 411.6C1732.12 402.92 1730.26 393.67 1730.26 383.84C1730.26 374.01 1732.11 364.76 1735.8 356.08Z" fill="white"/>
<path d="M1185.48 443.73C1186.47 446.04 1186.99 448.59 1186.99 451.36C1186.99 454.42 1186.32 457.54 1185.03 460.69C1183.71 463.86 1181.91 466.58 1179.6 468.89C1169.9 478.14 1158.93 485.04 1146.7 489.67C1134.47 494.27 1121.22 496.58 1106.89 496.58C1091.22 496.58 1076.52 493.73 1062.81 488.06C1049.13 482.36 1037.2 474.51 1027.01 464.51C1016.82 454.51 1008.79 442.74 1002.9 429.19C996.99 415.67 994.06 401.05 994.06 385.35V224.97C994.06 222.2 994.6 219.54 995.67 217.01C996.75 214.46 998.22 212.23 1000.13 210.32C1002.04 208.38 1004.22 206.91 1006.66 205.8C1009.13 204.72 1011.71 204.19 1014.48 204.19C1017.25 204.19 1019.91 204.73 1022.52 205.8C1025.1 206.9 1027.36 208.35 1029.29 210.21C1031.2 212.04 1032.73 214.24 1033.86 216.77C1035.02 219.32 1035.58 222.04 1035.58 224.97V270.21H1127.21C1132.91 270.21 1137.75 272.25 1141.75 276.31C1145.75 280.4 1147.74 285.29 1147.74 290.99C1147.74 296.69 1145.78 301.18 1141.85 304.94C1137.93 308.7 1133.03 310.58 1127.2 310.58H1035.57V385.81C1035.57 395.67 1037.42 404.87 1041.11 413.39C1044.82 421.94 1049.85 429.36 1056.24 435.67C1062.61 441.96 1070.16 446.93 1078.84 450.53C1087.55 454.16 1096.87 455.96 1106.87 455.96C1115.66 455.96 1123.91 454.7 1131.68 452.17C1139.45 449.62 1146.57 445.34 1153.05 439.35C1157.97 434.73 1163.1 432.42 1168.5 432.42C1170.81 432.42 1173.07 432.9 1175.3 433.82C1177.53 434.73 1179.52 436.05 1181.29 437.74C1183.06 439.43 1184.46 441.42 1185.46 443.73H1185.48Z" fill="white"/>
<path d="M504.18 106.14C504.18 117.24 495.12 126.27 484.02 126.27H451.12V159.17C451.12 170.27 442.09 179.27 431.04 179.27H430.99C419.89 179.27 410.86 170.27 410.86 159.17V126.27H377.99C366.86 126.27 357.86 117.24 357.86 106.14C357.86 100.79 359.96 95.7102 363.77 91.8902C367.56 88.1002 372.59 86.0002 377.99 86.0002H410.86V53.0702C410.86 42.0002 419.89 32.9902 430.99 32.9902C442.09 32.9902 451.12 41.9902 451.12 53.0702V86.0002H484.02C495.12 86.0002 504.18 95.0302 504.18 106.13V106.14Z" fill="#8CC63F"/>
<path d="M328.67 92.3001C332.49 96.6001 334.31 102.38 333.64 108.1C332.46 118.26 323.72 125.92 313.32 125.92H312.92C241.99 125.92 175.28 153.55 125.12 203.73C108.59 220.21 94.29 238.78 82.65 258.91C59.51 298.93 47.28 344.78 47.28 391.55C47.28 438.32 59.19 482.8 81.68 522.45C83.96 526.48 88.1 528.87 92.73 528.87C96.06 528.87 99.23 527.55 101.63 525.19L124.21 502.61C127.97 498.85 132.97 496.75 138.27 496.75C145.02 496.75 151.25 500.11 154.93 505.73L155.23 506.13C160.42 513.95 159.4 524.41 152.76 531.02L119.49 564.29C111.72 572.06 101.43 576.33 90.49 576.33C76.46 576.33 63.53 569.31 55.92 557.57L55.62 557.11C23.8 507.82 6.97 450.57 6.97 391.54C6.97 332.51 24.12 274.11 56.56 224.44C68.2 206.62 81.64 190.06 96.5 175.25C154.31 117.41 231.19 85.5601 312.92 85.5601H313.86C319.48 85.5901 324.88 88.0301 328.67 92.2801V92.3001Z" fill="#8CC63F"/>
<path d="M478.91 357.45L478.88 475.71C478.88 478.61 478.34 481.25 477.24 483.8C476.14 486.35 474.63 488.56 472.78 490.33C470.84 492.21 468.56 493.72 466.03 494.87C463.58 495.95 461 496.48 458.13 496.48C455.26 496.48 452.43 495.92 449.69 494.79C446.92 493.66 444.5 492.13 442.51 490.27C440.57 488.44 438.99 486.24 437.81 483.68C436.65 481.15 436.09 478.55 436.09 475.7V356.58C435.9 350.21 434.5 344.38 431.98 339.11C429.45 333.87 426.07 329.33 421.9 325.54C417.76 321.8 413 318.82 407.74 316.72C402.42 314.6 396.61 313.49 390.48 313.49C384.35 313.49 378.38 314.67 372.79 316.98C367.25 319.26 362.36 322.44 358.22 326.39C354.05 330.34 350.72 335.04 348.3 340.37C345.85 345.75 344.62 351.63 344.62 357.84V475.7C344.62 481.67 342.68 486.53 338.68 490.54C334.68 494.54 329.84 496.48 323.84 496.48C320.94 496.48 318.22 495.94 315.59 494.81C312.85 493.65 310.4 492.1 308.31 490.19C306.29 488.39 304.74 486.24 303.55 483.69C302.39 481.16 301.83 478.56 301.83 475.71V356.86C301.62 350.52 300.3 344.68 297.88 339.36C295.46 334.01 292.15 329.39 288.04 325.6C283.98 321.81 279.2 318.83 273.79 316.7C268.39 314.58 262.56 313.5 256.45 313.5C250.34 313.5 244.44 314.63 238.95 316.83C233.47 319.06 228.58 322.18 224.44 326.13C220.3 330.11 216.97 334.76 214.55 339.95C212.1 345.24 210.87 351.02 210.87 357.1V475.71C210.87 481.68 208.91 486.54 204.9 490.55C200.9 494.55 196.06 496.49 190.09 496.49C187.16 496.49 184.47 495.95 181.84 494.82C179.1 493.66 176.63 492.11 174.53 490.2C172.51 488.4 170.96 486.25 169.77 483.7C168.61 481.17 168.05 478.57 168.05 475.72V356.87C168.05 345.15 170.39 333.94 174.98 323.57C179.6 313.14 186 303.92 193.98 296.18C201.99 288.39 211.45 282.12 222.09 277.55C232.65 273.03 243.94 270.72 255.69 270.72C267.44 270.72 279.56 273.09 290.25 277.79C301.05 282.52 310.65 289.05 318.85 297.22L323.07 301.47L327.29 297.22C335.49 289.05 345.16 282.52 356.1 277.79C366.99 273.11 378.7 270.72 390.96 270.72C403.22 270.72 414.13 272.95 424.45 277.31C434.82 281.72 444.04 287.85 451.89 295.51C459.74 303.22 466.11 312.31 470.84 322.52C475.52 332.71 478.15 343.75 478.61 355.34C478.61 355.85 478.69 356.66 478.88 357.46L478.91 357.45Z" fill="white"/>
<path d="M1543.66 597.86C1541.65 597.02 1539.57 596.08 1537.42 595.06C1535.27 594.03 1533.31 592.78 1531.53 591.31C1529.75 589.84 1528.29 588.08 1527.15 586.05C1526 584.01 1525.43 581.57 1525.43 578.72C1525.43 575.87 1526.01 573.1 1527.18 570.69C1528.35 568.28 1529.97 566.23 1532.06 564.52C1534.14 562.81 1536.61 561.51 1539.46 560.59C1542.31 559.68 1545.44 559.22 1548.86 559.22C1550.82 559.22 1552.86 559.37 1554.96 559.68C1557.06 559.99 1559.06 560.47 1560.96 561.15C1562.85 561.83 1564.55 562.72 1566.04 563.82C1567.54 564.92 1568.68 566.24 1569.48 567.78C1570.18 569.28 1570.43 570.76 1570.22 572.23C1570.01 573.7 1569.48 574.91 1568.64 575.84C1567.99 576.59 1567.23 577.17 1566.36 577.59C1565.49 578.01 1564.57 578.22 1563.59 578.22C1562.84 578.22 1562.02 578.03 1561.14 577.66C1560.16 577.05 1559.26 576.51 1558.44 576.05C1557.62 575.58 1556.78 575.19 1555.91 574.86C1555.04 574.53 1554.13 574.29 1553.17 574.12C1552.21 573.96 1551.13 573.88 1549.91 573.88C1546.87 573.88 1544.57 574.29 1543 575.11C1541.43 575.93 1540.65 577.18 1540.65 578.86C1540.65 579.75 1540.94 580.49 1541.53 581.07C1542.11 581.65 1542.91 582.18 1543.91 582.65C1544.92 583.12 1546.13 583.56 1547.56 583.98C1548.99 584.4 1550.54 584.87 1552.22 585.38C1554.98 586.22 1557.61 587.2 1560.11 588.33C1562.61 589.45 1564.81 590.82 1566.7 592.43C1568.59 594.04 1570.1 595.94 1571.22 598.11C1572.34 600.28 1572.9 602.89 1572.9 605.93C1572.9 608.74 1572.3 611.36 1571.11 613.82C1569.92 616.28 1568.27 618.41 1566.17 620.24C1564.07 622.06 1561.57 623.5 1558.67 624.55C1555.77 625.6 1552.59 626.13 1549.13 626.13C1546.98 626.13 1544.7 625.93 1542.29 625.53C1539.88 625.13 1537.54 624.45 1535.28 623.49C1533.01 622.53 1530.92 621.29 1529 619.77C1527.08 618.25 1525.54 616.37 1524.37 614.12C1523.53 612.58 1523.11 611.14 1523.11 609.81C1523.11 608.48 1523.4 607.31 1523.99 606.3C1524.57 605.29 1525.39 604.51 1526.45 603.95C1527.5 603.39 1528.66 603.11 1529.92 603.11C1531.04 603.11 1532.21 603.35 1533.43 603.85C1534.64 604.34 1535.86 605.12 1537.08 606.2C1537.64 606.9 1538.34 607.57 1539.18 608.2C1540.02 608.83 1540.96 609.39 1541.99 609.88C1543.02 610.37 1544.13 610.76 1545.32 611.04C1546.51 611.32 1547.76 611.46 1549.07 611.46C1550.24 611.46 1551.34 611.33 1552.37 611.07C1553.4 610.81 1554.31 610.45 1555.11 609.98C1555.9 609.51 1556.54 608.95 1557 608.3C1557.47 607.65 1557.7 606.9 1557.7 606.06C1557.7 605.08 1557.19 604.18 1556.16 603.36C1555.13 602.54 1553.88 601.78 1552.41 601.08C1550.94 600.38 1549.39 599.76 1547.78 599.22C1546.17 598.68 1544.8 598.23 1543.68 597.85L1543.66 597.86Z" fill="#8CC63F"/>
<path d="M1587 592.68C1587 588.05 1587.89 583.72 1589.67 579.67C1591.45 575.63 1593.85 572.08 1596.89 569.04C1599.93 566 1603.47 563.61 1607.52 561.85C1611.56 560.1 1615.88 559.22 1620.46 559.22C1625.04 559.22 1629.44 560.1 1633.5 561.85C1637.57 563.6 1641.11 566 1644.13 569.04C1647.14 572.08 1649.52 575.62 1651.25 579.67C1652.98 583.71 1653.85 588.05 1653.85 592.68C1653.85 597.31 1652.98 601.59 1651.25 605.65C1649.52 609.72 1647.15 613.27 1644.13 616.31C1641.12 619.35 1637.57 621.74 1633.5 623.5C1629.43 625.25 1625.08 626.13 1620.46 626.13C1617.09 626.13 1613.88 625.65 1610.82 624.69C1607.76 623.73 1604.89 622.39 1602.23 620.66V641.07C1602.23 642.19 1602.05 643.23 1601.7 644.19C1601.35 645.15 1600.85 645.98 1600.19 646.68C1599.54 647.38 1598.75 647.94 1597.84 648.36C1596.93 648.78 1595.91 648.99 1594.79 648.99C1593.67 648.99 1592.71 648.78 1591.77 648.36C1590.84 647.94 1590.02 647.38 1589.32 646.68C1588.62 645.98 1588.06 645.15 1587.64 644.19C1587.22 643.23 1587.01 642.19 1587.01 641.07V592.68H1587ZM1602.22 592.68C1602.22 595.16 1602.7 597.51 1603.66 599.73C1604.62 601.95 1605.93 603.89 1607.59 605.55C1609.25 607.21 1611.18 608.52 1613.38 609.48C1615.58 610.44 1617.94 610.92 1620.46 610.92C1622.98 610.92 1625.36 610.44 1627.58 609.48C1629.8 608.52 1631.73 607.21 1633.37 605.55C1635.01 603.89 1636.29 601.95 1637.23 599.73C1638.16 597.51 1638.63 595.16 1638.63 592.68C1638.63 590.2 1638.16 587.78 1637.23 585.56C1636.3 583.34 1635.01 581.41 1633.37 579.77C1631.73 578.13 1629.8 576.84 1627.58 575.88C1625.36 574.92 1622.99 574.44 1620.46 574.44C1617.93 574.44 1615.63 574.92 1613.41 575.88C1611.19 576.84 1609.25 578.14 1607.59 579.77C1605.93 581.41 1604.62 583.34 1603.66 585.56C1602.7 587.78 1602.22 590.16 1602.22 592.68Z" fill="#8CC63F"/>
<path d="M1663.58 592.68C1663.58 588.05 1664.47 583.72 1666.24 579.67C1668.02 575.63 1670.42 572.08 1673.46 569.04C1676.5 566 1680.04 563.61 1684.09 561.85C1688.13 560.1 1692.45 559.22 1697.03 559.22C1701.61 559.22 1706.01 560.1 1710.07 561.85C1714.14 563.6 1717.68 566 1720.7 569.04C1723.71 572.08 1726.09 575.62 1727.82 579.67C1729.55 583.71 1730.42 588.05 1730.42 592.68C1730.42 597.31 1729.55 601.59 1727.82 605.65C1726.09 609.72 1723.72 613.27 1720.7 616.31C1717.68 619.35 1714.14 621.74 1710.07 623.5C1706 625.25 1701.65 626.13 1697.03 626.13C1692.41 626.13 1688.13 625.25 1684.09 623.5C1680.05 621.75 1676.5 619.35 1673.46 616.31C1670.42 613.27 1668.01 609.72 1666.24 605.65C1664.46 601.58 1663.58 597.26 1663.58 592.68ZM1678.8 592.68C1678.8 595.16 1679.28 597.51 1680.24 599.73C1681.2 601.95 1682.51 603.89 1684.17 605.55C1685.83 607.21 1687.76 608.52 1689.96 609.48C1692.16 610.44 1694.52 610.92 1697.04 610.92C1699.56 610.92 1701.94 610.44 1704.16 609.48C1706.38 608.52 1708.31 607.21 1709.95 605.55C1711.59 603.89 1712.87 601.95 1713.81 599.73C1714.74 597.51 1715.21 595.16 1715.21 592.68C1715.21 590.2 1714.74 587.78 1713.81 585.56C1712.88 583.34 1711.59 581.41 1709.95 579.77C1708.31 578.13 1706.38 576.84 1704.16 575.88C1701.94 574.92 1699.56 574.44 1697.04 574.44C1694.52 574.44 1692.21 574.92 1689.99 575.88C1687.77 576.84 1685.83 578.14 1684.17 579.77C1682.51 581.41 1681.2 583.34 1680.24 585.56C1679.28 587.78 1678.8 590.16 1678.8 592.68Z" fill="#8CC63F"/>
<path d="M1758.33 617.78C1758.33 618.81 1758.14 619.79 1757.77 620.73C1757.39 621.66 1756.87 622.46 1756.19 623.11C1755.51 623.76 1754.73 624.29 1753.84 624.69C1752.95 625.09 1751.99 625.29 1750.96 625.29C1749.93 625.29 1748.87 625.09 1747.91 624.69C1746.95 624.29 1746.12 623.77 1745.42 623.11C1744.72 622.46 1744.16 621.66 1743.74 620.73C1743.32 619.8 1743.11 618.81 1743.11 617.78V595.13C1743.11 590.32 1744.03 585.78 1745.88 581.53C1747.73 577.28 1750.24 573.56 1753.42 570.38C1756.6 567.2 1760.32 564.69 1764.57 562.84C1768.82 560.99 1773.34 560.07 1778.11 560.07H1778.25C1780.77 560.07 1782.73 560.78 1784.11 562.21C1785.49 563.64 1786.18 565.45 1786.18 567.64C1786.18 568.72 1785.97 569.72 1785.55 570.66C1785.13 571.59 1784.56 572.4 1783.83 573.08C1783.1 573.76 1782.26 574.3 1781.31 574.69C1780.35 575.09 1779.33 575.29 1778.26 575.29H1778.12C1775.45 575.29 1772.92 575.8 1770.51 576.83C1768.1 577.86 1766.01 579.26 1764.23 581.04C1762.45 582.82 1761.03 584.9 1759.95 587.28C1758.87 589.66 1758.34 592.21 1758.34 594.93V617.79L1758.33 617.78Z" fill="#8CC63F"/>
<path d="M1813.45 560.07H1837.86C1838.93 560.07 1839.94 560.27 1840.87 560.67C1841.8 561.07 1842.62 561.62 1843.33 562.32C1844.03 563.02 1844.58 563.84 1844.98 564.78C1845.38 565.72 1845.58 566.72 1845.58 567.79C1845.58 568.86 1845.38 569.79 1844.98 570.7C1844.58 571.61 1844.03 572.41 1843.33 573.08C1842.63 573.76 1841.81 574.3 1840.87 574.69C1839.94 575.09 1838.93 575.29 1837.86 575.29H1813.45V593.03C1813.45 595.51 1813.93 597.83 1814.89 600.01C1815.85 602.18 1817.15 604.08 1818.78 605.69C1820.42 607.3 1822.35 608.58 1824.57 609.51C1826.79 610.45 1829.16 610.91 1831.69 610.91C1833.93 610.91 1836.01 610.59 1837.93 609.96C1839.85 609.33 1841.62 608.29 1843.26 606.84C1844.05 606.09 1844.94 605.47 1845.93 604.98C1846.91 604.49 1847.94 604.24 1849.02 604.24C1850.75 604.24 1852.31 604.87 1853.72 606.13C1854.56 606.88 1855.16 607.77 1855.51 608.79C1855.86 609.82 1856 610.88 1855.93 611.98C1855.86 613.08 1855.59 614.14 1855.12 615.17C1854.65 616.2 1854 617.11 1853.16 617.91C1850.36 620.62 1847.13 622.67 1843.48 624.05C1839.83 625.43 1835.91 626.12 1831.7 626.12C1827.07 626.12 1822.73 625.26 1818.69 623.52C1814.65 621.79 1811.1 619.43 1808.06 616.44C1805.02 613.45 1802.63 609.93 1800.87 605.88C1799.12 601.84 1798.24 597.5 1798.24 592.87V547.85C1798.24 546.78 1798.45 545.77 1798.87 544.84C1799.29 543.91 1799.85 543.09 1800.55 542.38C1801.25 541.67 1802.07 541.13 1803.01 540.73C1803.94 540.33 1804.93 540.13 1805.95 540.13C1806.97 540.13 1807.95 540.33 1808.86 540.73C1809.77 541.13 1810.57 541.68 1811.25 542.38C1811.93 543.08 1812.46 543.9 1812.86 544.84C1813.26 545.77 1813.46 546.78 1813.46 547.85V560.05L1813.45 560.07Z" fill="#8CC63F"/>
<path d="M1883.79 597.86C1881.78 597.02 1879.7 596.08 1877.55 595.06C1875.4 594.03 1873.44 592.78 1871.66 591.31C1869.88 589.84 1868.42 588.08 1867.28 586.05C1866.13 584.01 1865.56 581.57 1865.56 578.72C1865.56 575.87 1866.14 573.1 1867.31 570.69C1868.48 568.28 1870.1 566.23 1872.19 564.52C1874.27 562.81 1876.74 561.51 1879.59 560.59C1882.44 559.68 1885.57 559.22 1888.99 559.22C1890.95 559.22 1892.99 559.37 1895.09 559.68C1897.19 559.99 1899.19 560.47 1901.09 561.15C1902.98 561.83 1904.68 562.72 1906.17 563.82C1907.66 564.92 1908.81 566.24 1909.61 567.78C1910.31 569.28 1910.56 570.76 1910.35 572.23C1910.14 573.7 1909.61 574.91 1908.77 575.84C1908.12 576.59 1907.36 577.17 1906.49 577.59C1905.62 578.01 1904.7 578.22 1903.72 578.22C1902.97 578.22 1902.15 578.03 1901.27 577.66C1900.29 577.05 1899.39 576.51 1898.57 576.05C1897.75 575.58 1896.91 575.19 1896.04 574.86C1895.17 574.53 1894.26 574.29 1893.3 574.12C1892.34 573.96 1891.26 573.88 1890.04 573.88C1887 573.88 1884.7 574.29 1883.13 575.11C1881.56 575.93 1880.78 577.18 1880.78 578.86C1880.78 579.75 1881.07 580.49 1881.66 581.07C1882.24 581.65 1883.04 582.18 1884.04 582.65C1885.05 583.12 1886.26 583.56 1887.69 583.98C1889.12 584.4 1890.67 584.87 1892.35 585.38C1895.11 586.22 1897.74 587.2 1900.24 588.33C1902.74 589.45 1904.94 590.82 1906.83 592.43C1908.72 594.04 1910.23 595.94 1911.35 598.11C1912.47 600.28 1913.03 602.89 1913.03 605.93C1913.03 608.74 1912.43 611.36 1911.24 613.82C1910.05 616.28 1908.4 618.41 1906.3 620.24C1904.2 622.06 1901.7 623.5 1898.8 624.55C1895.9 625.6 1892.72 626.13 1889.26 626.13C1887.11 626.13 1884.83 625.93 1882.42 625.53C1880.01 625.13 1877.67 624.45 1875.41 623.49C1873.14 622.53 1871.05 621.29 1869.13 619.77C1867.21 618.25 1865.67 616.37 1864.5 614.12C1863.66 612.58 1863.24 611.14 1863.24 609.81C1863.24 608.48 1863.53 607.31 1864.12 606.3C1864.7 605.29 1865.52 604.51 1866.58 603.95C1867.63 603.39 1868.79 603.11 1870.05 603.11C1871.17 603.11 1872.34 603.35 1873.56 603.85C1874.77 604.34 1875.99 605.12 1877.21 606.2C1877.77 606.9 1878.47 607.57 1879.31 608.2C1880.15 608.83 1881.09 609.39 1882.12 609.88C1883.15 610.37 1884.26 610.76 1885.45 611.04C1886.64 611.32 1887.89 611.46 1889.2 611.46C1890.37 611.46 1891.47 611.33 1892.5 611.07C1893.53 610.81 1894.44 610.45 1895.24 609.98C1896.03 609.51 1896.67 608.95 1897.13 608.3C1897.6 607.65 1897.83 606.9 1897.83 606.06C1897.83 605.08 1897.32 604.18 1896.29 603.36C1895.26 602.54 1894.01 601.78 1892.54 601.08C1891.07 600.38 1889.52 599.76 1887.91 599.22C1886.3 598.68 1884.93 598.23 1883.81 597.85L1883.79 597.86Z" fill="#8CC63F"/>
<path d="M1461.37 611.61C1458.7 611.73 1456.04 611.92 1453.37 611.95C1449.29 611.99 1445.2 612.02 1441.12 611.83C1438.75 611.72 1436.4 611.19 1434.05 610.81C1433.77 610.77 1433.47 610.53 1433.29 610.3C1429.71 605.41 1426.74 600.16 1424.16 594.68C1424.03 594.41 1424.05 594.01 1424.14 593.71C1425.8 588.48 1428.25 583.61 1431.04 578.9C1432.88 575.81 1434.89 572.84 1437.14 570.07C1439.63 569.48 1452.34 569.64 1458 570.33C1463.97 577.67 1468.22 586.01 1471.3 594.91C1470.41 598.1 1465.87 605.72 1461.36 611.61H1461.37Z" fill="#8CC63F"/>
<path d="M1438.3 643.66C1433.25 638.35 1428.76 632.7 1424.55 626.75C1427.7 622.34 1430.83 617.95 1433.95 613.56C1443 615.46 1452.05 614.62 1461.12 614.32C1464.31 618.78 1467.58 623.18 1471.47 627.24C1469.73 629.61 1468.03 631.99 1466.25 634.3C1463.83 637.44 1461.19 640.38 1458.3 643.1C1458.08 643.31 1457.78 643.5 1457.49 643.57C1453.08 644.51 1448.63 644.73 1444.14 644.33C1442.19 644.16 1440.26 643.89 1438.29 643.66H1438.3Z" fill="#8CC63F"/>
<path d="M1473.55 593.21C1470.45 584.55 1466.31 576.49 1460.59 569.25C1463.37 564.72 1465.71 560.01 1467.11 554.82C1467.46 554.78 1467.8 554.73 1468.14 554.72C1474.76 554.38 1481.11 555.49 1487.12 558.35C1487.45 558.51 1487.77 558.77 1488 559.06C1491.9 563.96 1494.84 569.4 1497.07 575.24C1497.09 575.3 1497.1 575.36 1497.12 575.46C1495.14 582.11 1493.13 588.76 1489.51 594.85C1484.2 594.31 1478.89 593.76 1473.55 593.22V593.21Z" fill="#8CC63F"/>
<path d="M1405.64 595.27C1403.92 592.75 1400.09 582.21 1398.48 575.59C1401.23 568.97 1405.11 562.98 1409.6 557.31C1416.24 555.6 1423.05 554.91 1429.86 554.38C1431.32 556.36 1434.78 565.42 1435.16 568.24C1429.39 575.59 1424.8 583.63 1421.67 592.53C1416.18 592.57 1410.85 593.51 1405.64 595.27Z" fill="#8CC63F"/>
<path d="M1435.23 644.4C1434.1 645.18 1433 645.94 1431.95 646.66C1418.23 642.37 1407.61 634.29 1399.97 622.29C1400.09 622.18 1400.15 622.12 1400.22 622.07C1402.2 620.78 1404.18 619.48 1406.2 618.16C1406.4 618.3 1406.61 618.43 1406.82 618.58C1411.44 621.77 1416.15 624.8 1421.31 627.07C1421.51 627.16 1421.71 627.33 1421.83 627.51C1425.84 633.35 1430.24 638.88 1435.03 644.1C1435.06 644.13 1435.08 644.17 1435.23 644.4Z" fill="#8CC63F"/>
<path d="M1464.84 646.25C1463.63 645.57 1462.4 644.87 1461.13 644.15C1462.26 642.93 1463.32 641.83 1464.34 640.7C1467.96 636.71 1471.23 632.45 1474.11 627.9C1474.26 627.66 1474.48 627.4 1474.72 627.28C1479.94 624.79 1484.82 621.74 1489.41 618.23C1489.48 618.18 1489.55 618.14 1489.66 618.07C1491.74 619.11 1493.83 620.16 1496.02 621.27C1488.69 633.41 1478.37 641.7 1464.83 646.24L1464.84 646.25Z" fill="#8CC63F"/>
<path d="M1398.59 619.92C1391.68 606.91 1389.91 593.32 1393.31 579.01C1394.31 578.65 1395.27 578.31 1396.29 577.94C1396.64 579.14 1396.96 580.29 1397.31 581.44C1399.04 587.1 1401.03 592.65 1403.89 597.86C1404 598.05 1404.06 598.31 1404.05 598.53C1403.68 604.22 1403.89 609.88 1404.66 615.52C1404.68 615.65 1404.66 615.78 1404.66 615.97C1402.68 617.26 1400.67 618.56 1398.58 619.91L1398.59 619.92Z" fill="#8CC63F"/>
<path d="M1497.34 618.93C1495.22 617.87 1493.21 616.86 1491.14 615.82C1491.29 614.87 1491.45 613.92 1491.58 612.97C1492.2 608.69 1492.17 604.4 1491.73 600.1C1491.64 599.22 1491.5 598.35 1491.43 597.47C1491.41 597.19 1491.47 596.86 1491.6 596.62C1494.87 590.91 1497.47 584.91 1499.14 578.53C1499.16 578.45 1499.19 578.37 1499.25 578.2C1500.19 578.66 1501.11 579.11 1502.07 579.59C1505.24 593.25 1503.71 606.32 1497.32 618.91L1497.34 618.93Z" fill="#8CC63F"/>
<path d="M1446.33 536.89C1446.45 539.22 1446.56 541.43 1446.67 543.67C1446.43 543.78 1446.22 543.88 1446.01 543.96C1441.01 545.93 1436.26 548.36 1431.74 551.26C1431.45 551.45 1431.08 551.58 1430.74 551.61C1424.84 552.06 1418.96 552.65 1413.15 553.79C1412.24 553.97 1411.34 554.16 1410.36 554.36C1410.23 553.35 1410.1 552.38 1409.96 551.36C1420.33 542.18 1432.43 537.39 1446.33 536.89Z" fill="#8CC63F"/>
<path d="M1486.02 552.11V554.78C1485.81 554.72 1485.65 554.69 1485.5 554.64C1479.25 552.4 1472.83 551.58 1466.22 552.2C1465.97 552.22 1465.65 552.17 1465.44 552.03C1460.39 548.82 1455.13 546.02 1449.56 543.79C1449.5 543.77 1449.45 543.72 1449.35 543.66C1449.25 541.47 1449.15 539.24 1449.04 536.9C1463.29 537.44 1475.56 542.56 1486.02 552.12V552.11Z" fill="#8CC63F"/>
</svg>
