<svg width="64" height="48" viewBox="0 0 64 48" fill="none" xmlns="http://www.w3.org/2000/svg">
<path fill-rule="evenodd" clip-rule="evenodd" d="M8.73604 5.53809C9.06843 5.53809 9.34035 5.81119 9.34035 6.14497V12.4977C10.4916 10.9046 12.3579 9.86868 14.4649 9.86868C17.9625 9.86868 20.7979 12.7227 20.7979 16.2433C20.7979 19.7638 17.9625 22.6178 14.4649 22.6178C10.9671 22.6178 8.13173 19.7638 8.13173 16.2433C8.13173 16.0869 8.13754 15.9319 8.14865 15.7784C8.13754 15.7328 8.13173 15.6853 8.13173 15.6364V6.14497C8.13173 5.81119 8.40364 5.53809 8.73604 5.53809ZM55.1231 9.8493C55.7825 9.8493 56.3219 10.3911 56.3219 11.0532V18.5116C56.3219 18.6401 56.3016 18.7641 56.2639 18.8804L56.2253 19.4242C55.4691 23.0527 50.8919 23.2878 49.2637 21.0749L44.3907 13.3846C44.1859 13.0614 43.9965 12.7433 43.7284 12.5589C42.827 11.9387 41.6579 12.204 41.3545 13.501V21.3899C41.3545 22.0521 40.8152 22.5938 40.1558 22.5938C39.4965 22.5938 38.957 22.0521 38.957 21.3899V13.501C38.957 13.4042 38.9686 13.31 38.9904 13.2196C39.8138 9.13657 44.2695 8.9454 45.9644 11.2862L50.9654 19.23C51.7737 20.5683 53.7958 20.4851 53.9302 18.6313C53.9265 18.592 53.9244 18.552 53.9244 18.5116V11.0532C53.9244 10.3911 54.4637 9.8493 55.1231 9.8493ZM36.5967 9.8493C37.256 9.8493 37.7955 10.3911 37.7955 11.0532V21.3899C37.7955 22.0521 37.256 22.5938 36.5967 22.5938C35.9373 22.5938 35.3978 22.0521 35.3978 21.3899V11.0532C35.3978 10.3911 35.9373 9.8493 36.5967 9.8493ZM27.1364 15.564H33.0008C32.6697 13.0928 30.6563 11.1023 27.924 11.1023C25.1916 11.1023 22.7646 13.4085 22.7646 16.2534C22.7646 19.0983 25.0745 21.4046 27.924 21.4046C29.8435 21.4046 31.5182 20.3578 32.4066 18.805C32.6615 18.3591 33.6874 18.7481 33.4448 19.2979C32.5358 21.3583 30.2833 22.6178 27.8852 22.6178C24.3875 22.6178 21.5521 19.7638 21.5521 16.2433C21.5521 12.7227 24.2425 9.86868 27.8852 9.86868C31.5279 9.86868 34.2779 12.7232 34.2183 16.2433C34.2127 16.5702 33.9168 16.8578 33.545 16.8578H27.1364C26.7822 16.8578 26.4924 16.5667 26.4924 16.2109C26.4924 15.8551 26.7822 15.564 27.1364 15.564ZM9.26315 16.2433C9.26315 19.1349 11.5824 21.382 14.4551 21.382C17.328 21.382 19.5602 19.1058 19.5602 16.2141C19.5602 13.3225 17.3376 11.0075 14.4649 11.0075C11.6283 11.0075 9.26315 13.408 9.26315 16.2433Z" fill="white"/>
<path fill-rule="evenodd" clip-rule="evenodd" d="M0 0H64V34.3155C64 41.842 57.8681 48 50.3734 48H0V0ZM1.05588 1.42731H62.9442V26.8751H1.05588V1.42731ZM11.7605 33.0069C14.9401 32.9123 15.3708 35.0755 15.3708 36.0258C15.3708 37.2033 14.1754 36.7942 14.1754 36.2066C14.1754 36.1826 14.1759 36.1523 14.1765 36.1172C14.1798 35.9356 14.1854 35.6264 14.1291 35.4094C13.8377 34.2846 12.0779 33.8197 11.0601 34.4358C10.1509 34.9862 9.44359 36.3957 11.3318 37.0144C11.6033 37.1034 11.8666 37.111 12.1891 37.1204C12.4626 37.1283 12.7786 37.1375 13.1784 37.1985C14.5198 37.4032 15.5364 38.1795 15.5364 39.605C15.5364 43.6243 9.01966 43.5897 9.05654 39.605C9.06579 38.608 10.2518 38.8388 10.2518 39.4141C10.2518 39.437 10.2513 39.466 10.2506 39.4995C10.2474 39.6733 10.2418 39.969 10.2981 40.1766C10.5896 41.2524 12.2912 41.5819 13.3672 41.1078C14.267 40.7112 15.0575 39.0292 13.1693 38.4375C12.8946 38.3514 12.6223 38.3365 12.2894 38.3183C12.0143 38.3033 11.6978 38.286 11.3042 38.2244C7.37745 37.6095 8.95065 33.0905 11.7605 33.0069ZM17.9457 39.4528L19.9025 39.4575C21.9617 39.4612 23.0779 37.7566 23.0779 35.9883C23.0779 34.3504 21.7436 33.0103 20.1125 33.0103H19.6557C18.0248 33.0103 16.6904 34.3504 16.6904 35.9883V41.7092C16.6904 42.02 16.8812 42.3504 17.3432 42.3258C17.6659 42.3087 17.9199 41.9973 17.9226 41.7379L17.9457 39.4528ZM17.9762 38.2432H19.8842C21.0127 38.2432 21.9361 37.3159 21.9361 36.1825C21.9361 35.093 21.0484 34.2016 19.9635 34.2016H19.9561C18.8671 34.2016 17.9762 35.0964 17.9762 36.1899V38.2432ZM28.7498 33.0226C31.3906 33.0226 33.5313 35.1558 33.5313 37.7873C33.5313 40.4187 31.3906 42.5519 28.7498 42.5519C26.1092 42.5519 23.9685 40.4187 23.9685 37.7873C23.9685 35.1558 26.1092 33.0226 28.7498 33.0226ZM32.3406 37.7873C32.3406 35.8111 30.7329 34.2092 28.7498 34.2092C26.7668 34.2092 25.1592 35.8111 25.1592 37.7873C25.1592 39.7634 26.7668 41.3654 28.7498 41.3654C30.7329 41.3654 32.3406 39.7634 32.3406 37.7873ZM35.6989 39.4528L37.5147 39.4572L39.1021 42.0161C39.5597 42.6694 40.5058 42.0582 40.0529 41.3023L38.8128 39.2541C40.1295 38.7517 40.8312 37.3901 40.8312 35.9883C40.8312 34.3504 39.4967 33.0103 37.8657 33.0103H37.409C35.778 33.0103 34.4436 34.3504 34.4436 35.9883V41.7092C34.4436 42.02 34.6344 42.3504 35.0963 42.3258C35.4192 42.3087 35.6732 41.9973 35.6758 41.7379L35.6989 39.4528ZM35.6988 38.2432H37.6068C38.7354 38.2432 39.6587 37.3159 39.6587 36.1825C39.6587 35.093 38.7711 34.2016 37.6862 34.2016H37.6788C36.5898 34.2016 35.6988 35.0964 35.6988 36.1899V38.2432ZM42.0835 33.2053H47.3634C47.6933 33.2053 47.9634 33.4764 47.9634 33.8078C47.9634 34.1392 47.6933 34.4103 47.3634 34.4103H45.3234V41.7612C45.3234 42.0927 45.0533 42.3638 44.7234 42.3638C44.3934 42.3638 44.1234 42.0927 44.1234 41.7612V34.4103H42.0835C41.7534 34.4103 41.4834 34.1392 41.4834 33.8078C41.4834 33.4764 41.7534 33.2053 42.0835 33.2053ZM54.9419 36.0258C54.9419 35.0755 54.5112 32.9123 51.3317 33.0069C48.5218 33.0905 46.9486 37.6095 50.8753 38.2244C51.2689 38.286 51.5854 38.3033 51.8606 38.3183C52.1935 38.3365 52.4658 38.3514 52.7404 38.4375C54.6286 39.0292 53.8381 40.7112 52.9383 41.1078C51.8625 41.5819 50.1607 41.2524 49.8692 40.1766C49.813 39.9691 49.8185 39.6734 49.8218 39.4996C49.8224 39.4661 49.823 39.437 49.823 39.4141C49.823 38.8388 48.6369 38.608 48.6276 39.605C48.5908 43.5897 55.1075 43.6243 55.1075 39.605C55.1075 38.1795 54.0908 37.4032 52.7496 37.1985C52.3498 37.1375 52.0337 37.1283 51.7603 37.1204C51.4377 37.111 51.1744 37.1034 50.9029 37.0144C49.0147 36.3957 49.722 34.9862 50.6311 34.4358C51.6491 33.8197 53.4087 34.2846 53.7003 35.4094C53.7565 35.6264 53.7509 35.9354 53.7477 36.1171C53.747 36.1522 53.7465 36.1826 53.7465 36.2066C53.7465 36.7942 54.9419 37.2033 54.9419 36.0258Z" fill="white"/>
</svg>
