<svg width="181" height="32" viewBox="0 0 181 32" fill="none" xmlns="http://www.w3.org/2000/svg">
<g clip-path="url(#clip0_64_349)">
<path d="M16.9752 7.83489C13.2389 7.83489 11.0798 10.0922 10.2524 11.1886V3.03644C10.2524 2.59787 9.90329 2.24959 9.46371 2.24959C9.02414 2.24959 8.67507 2.59787 8.67507 3.03644V16.3999C8.67507 20.2825 11.8426 24.4747 16.9752 24.4747C21.9398 24.4747 25.2754 20.1406 25.2754 16.1032C25.2754 10.9952 20.9701 7.83489 16.9752 7.83489ZM16.9494 22.7978C13.2518 22.7849 10.2653 19.7794 10.2782 16.0903C10.3041 12.4012 13.3035 9.43437 16.9881 9.46017C20.6728 9.48597 23.6464 12.4786 23.6205 16.1677C23.6076 19.8439 20.6211 22.8107 16.9494 22.7978ZM41.2034 15.3163H33.4074C32.9549 15.3163 32.5929 15.6775 32.5929 16.1419C32.5929 16.5934 32.9549 16.9545 33.4074 16.9545H42.0696C42.4962 16.9803 42.8582 16.6707 42.897 16.2451V16.1548C42.897 11.5627 39.1736 7.84779 34.5839 7.84779C29.9943 7.84779 26.2709 11.5756 26.2709 16.1548C26.2709 20.734 29.9943 24.4618 34.5839 24.4618C37.467 24.4618 40.1432 22.9655 41.6559 20.5147C41.9015 20.1406 41.7981 19.6375 41.4231 19.3925C41.0482 19.1474 40.5569 19.2377 40.2984 19.6117C40.2984 19.6117 40.2984 19.6246 40.2854 19.6246C38.3591 22.772 34.2478 23.7781 31.0932 21.8562C27.9386 19.9342 26.9431 15.8194 28.8695 12.6591C30.7959 9.49887 34.9071 8.50564 38.0617 10.4276C39.7812 11.4982 40.9448 13.2912 41.2034 15.3163ZM45.9223 24.4618C46.8144 24.4618 47.4737 23.7523 47.5254 23.1203V9.21509C47.4737 8.58304 46.8144 7.88649 45.9352 7.87359H45.9223C45.0302 7.87359 44.3838 8.57014 44.3321 9.22799V23.1203C44.3838 23.7781 45.0431 24.4618 45.9223 24.4618ZM71.7148 19.4312V9.17639C71.6631 8.54434 71.0166 7.84779 70.1375 7.84779C69.2713 7.84779 68.599 8.55724 68.5602 9.20219V19.444C68.5602 19.7278 68.3663 20.6179 67.5389 21.0177C65.7935 21.8433 64.9014 20.3986 64.8626 20.3341L58.4759 10.2728C57.6356 8.81522 55.2567 7.07385 52.128 8.23476C49.0639 9.49887 48.9864 12.6978 48.9864 12.7365V23.1977C49.0381 23.8039 49.6586 24.4747 50.5895 24.4747C51.4428 24.4747 52.1539 23.8039 52.1539 23.0171V13.0074C52.1539 13.0052 52.1538 13.0015 52.1537 12.9966C52.1497 12.8309 52.1105 11.1963 54.119 11.021C55.309 10.9571 55.9164 12.182 55.9413 12.2323L55.9419 12.2335C55.9744 12.2846 56.1002 12.4833 56.2955 12.7915C57.5772 14.815 61.8513 21.5628 62.3674 22.3463C62.8329 23.0558 64.3196 24.4747 66.5046 24.4747C67.2544 24.4618 67.9914 24.3199 68.6766 24.0232C71.8958 22.7075 71.7277 19.4569 71.7148 19.4312Z" fill="#5C2D91"/>
<path fill-rule="evenodd" clip-rule="evenodd" d="M172.596 31.9948H8.40357C3.76221 31.9948 0 28.2412 0 23.6104V0.00515747H181V23.6104C181 28.2412 177.238 31.9948 172.596 31.9948ZM8.40357 30.7049H73.6023C77.5197 30.7049 80.7131 27.5318 80.7131 23.6104V1.29506H1.29286V23.6104C1.29286 27.5318 4.47329 30.7049 8.40357 30.7049ZM92.1678 13.9103C92.7754 14.5295 93.8226 14.8391 95.2706 14.8391C98.8648 14.8391 101.192 16.6192 101.218 19.3925C101.218 21.753 99.6664 24.5134 95.2836 24.5134C93.5899 24.5134 92.0902 23.92 91.0301 22.8365C90.0604 21.8433 89.5433 20.5147 89.595 19.1345C89.595 18.554 90.0604 18.0896 90.6422 18.0896C91.224 18.0896 91.6894 18.554 91.6894 19.1345C91.6636 19.9729 91.9609 20.7727 92.5169 21.3918C93.1504 22.0626 94.0941 22.4108 95.3094 22.4108H95.3353C96.6928 22.4108 97.7141 22.0626 98.3476 21.4047C99.0846 20.6437 99.1104 19.6633 99.0975 19.3796C99.1104 18.8507 98.9036 18.3347 98.5286 17.9478C97.8951 17.3028 96.8091 16.9674 95.2836 16.9674C90.7844 16.9674 89.5821 14.336 89.5821 12.7881C89.5821 12.2464 89.7372 7.57691 95.2448 7.57691H95.2706C95.5034 7.57691 100.92 7.6414 100.92 13.1235C100.92 13.6911 100.455 14.1554 99.8861 14.1554C99.3173 14.1554 98.8519 13.6911 98.8519 13.1235C98.8648 13.0977 98.9682 11.6401 98.0374 10.634C97.4168 9.96324 96.4989 9.62786 95.2836 9.62786C94.0166 9.62786 93.0469 9.96324 92.4264 10.634C91.5941 11.5272 91.6474 12.7272 91.6505 12.7979L91.6507 12.801C91.6765 13.2267 91.8575 13.6137 92.1678 13.9103ZM162.887 13.9103C163.495 14.5295 164.542 14.8391 165.99 14.8391C169.584 14.8391 171.911 16.6192 171.937 19.3925C171.937 21.753 170.386 24.5134 166.003 24.5134C164.309 24.5134 162.81 23.92 161.749 22.8365C160.78 21.8433 160.263 20.5147 160.314 19.1345C160.314 18.554 160.78 18.0896 161.361 18.0896C161.943 18.0896 162.409 18.554 162.409 19.1345C162.383 19.9729 162.68 20.7727 163.236 21.3918C163.87 22.0626 164.801 22.4108 166.029 22.4108H166.055C167.412 22.4108 168.433 22.0626 169.067 21.4047C169.804 20.6437 169.83 19.6633 169.817 19.3796C169.83 18.8507 169.623 18.3218 169.248 17.9478C168.614 17.3028 167.516 16.9674 166.003 16.9674C161.504 16.9674 160.301 14.336 160.301 12.7881C160.301 12.2464 160.456 7.57691 165.964 7.57691H165.99C166.223 7.57691 171.64 7.6414 171.64 13.1235C171.627 13.6653 171.187 14.1038 170.644 14.1167C170.075 14.1425 169.597 13.6911 169.571 13.1235C169.584 13.0977 169.688 11.6401 168.757 10.634C168.136 9.96324 167.218 9.62786 166.003 9.62786C164.736 9.62786 163.766 9.96324 163.146 10.634C162.313 11.5272 162.367 12.7272 162.37 12.7979L162.37 12.801C162.396 13.2138 162.577 13.6137 162.887 13.9103ZM103.364 13.2525C103.364 9.89874 105.704 7.56401 109.04 7.56401C112.104 7.60271 114.586 10.0922 114.638 13.1622C114.689 16.2967 112.181 18.8765 109.04 18.9281H105.497V23.1848C105.471 23.7652 104.98 24.2296 104.398 24.2038C103.816 24.178 103.351 23.6878 103.377 23.1074L103.364 13.2525ZM116.344 16.0258C116.344 11.3434 120.132 7.56401 124.812 7.56401C129.493 7.57691 133.281 11.3563 133.281 16.0258C133.281 20.7082 129.493 24.4876 124.812 24.4876C120.132 24.4876 116.344 20.6953 116.344 16.0258ZM145.938 11.1757C147.088 14.1167 145.653 17.4318 142.719 18.5927L145.097 22.5269C145.24 22.772 145.278 23.0687 145.201 23.3396C145.123 23.6233 144.942 23.8555 144.697 23.9974C144.179 24.2941 143.533 24.1135 143.236 23.5975L140.43 19.0055H137.056V23.1203C137.056 23.7007 136.577 24.178 135.996 24.178C135.414 24.178 134.936 23.7136 134.936 23.1203L134.923 13.2912C134.923 9.92454 137.263 7.56401 140.624 7.56401C142.977 7.56401 145.072 8.99581 145.938 11.1757ZM158.052 10.0148C158.634 10.0148 159.112 9.53757 159.112 8.95711C159.112 8.36375 158.634 7.88649 158.052 7.89938H148.575C147.993 7.89938 147.515 8.37665 147.515 8.95711C147.515 9.53757 147.993 10.0148 148.575 10.0148H152.247V23.0945C152.247 23.6749 152.725 24.1522 153.307 24.1522C153.889 24.1522 154.367 23.6878 154.367 23.0945V10.0148H158.052Z" fill="white"/>
<path d="M109.014 16.8513H105.497L105.484 13.2525C105.484 11.0855 106.906 9.62786 109.014 9.62786C111.018 9.62786 112.634 11.2402 112.634 13.2396C112.634 15.2261 111.018 16.8513 109.014 16.8513Z" fill="white"/>
<path d="M124.812 22.4366C121.27 22.4366 118.4 19.573 118.4 16.0387C118.4 12.5044 121.27 9.62786 124.812 9.62786C128.355 9.62786 131.225 12.4915 131.225 16.0258C131.225 19.5601 128.355 22.4237 124.812 22.4366Z" fill="white"/>
<path d="M137.043 16.9029V13.2783C137.043 11.0984 138.478 9.62786 140.598 9.62786C142.602 9.62786 144.231 11.2531 144.231 13.2654C144.231 15.2777 142.602 16.9029 140.598 16.9029H137.043Z" fill="white"/>
<path fill-rule="evenodd" clip-rule="evenodd" d="M10.2524 11.1886C11.0798 10.0922 13.2389 7.83489 16.9752 7.83489C20.9701 7.83489 25.2754 10.9952 25.2754 16.1032C25.2754 20.1406 21.9398 24.4747 16.9752 24.4747C11.8426 24.4747 8.67507 20.2825 8.67507 16.3999V3.03644C8.67507 2.59787 9.02414 2.24959 9.46371 2.24959C9.90329 2.24959 10.2524 2.59787 10.2524 3.03644V11.1886ZM33.4074 15.3163H41.2034C40.9448 13.2912 39.7812 11.4982 38.0617 10.4276C34.9071 8.50564 30.7959 9.49887 28.8695 12.6591C26.9431 15.8194 27.9386 19.9342 31.0932 21.8562C34.2478 23.7781 38.3591 22.772 40.2854 19.6246C40.2984 19.6246 40.2984 19.6117 40.2984 19.6117C40.5569 19.2377 41.0482 19.1474 41.4231 19.3925C41.7981 19.6375 41.9015 20.1406 41.6559 20.5147C40.1432 22.9655 37.467 24.4618 34.5839 24.4618C29.9943 24.4618 26.2709 20.734 26.2709 16.1548C26.2709 11.5756 29.9943 7.84779 34.5839 7.84779C39.1736 7.84779 42.897 11.5627 42.897 16.1548V16.2451C42.8582 16.6707 42.4962 16.9803 42.0696 16.9545H33.4074C32.9549 16.9545 32.5929 16.5934 32.5929 16.1419C32.5929 15.6775 32.9549 15.3163 33.4074 15.3163ZM47.5254 23.1203C47.4737 23.7523 46.8144 24.4618 45.9223 24.4618C45.0431 24.4618 44.3838 23.7781 44.3321 23.1203V9.22799C44.3838 8.57014 45.0302 7.87359 45.9223 7.87359H45.9352C46.8144 7.88649 47.4737 8.58304 47.5254 9.21509V23.1203ZM71.7148 9.17639V19.4312C71.7277 19.4569 71.8958 22.7075 68.6766 24.0232C67.9914 24.3199 67.2544 24.4618 66.5046 24.4747C64.3196 24.4747 62.8329 23.0558 62.3674 22.3463C61.8513 21.5628 57.5772 14.815 56.2955 12.7915L55.9419 12.2335L55.9413 12.2323C55.9164 12.182 55.309 10.9571 54.119 11.021C52.1105 11.1963 52.1497 12.8309 52.1537 12.9966L52.1539 13.0074V23.0171C52.1539 23.8039 51.4428 24.4747 50.5895 24.4747C49.6586 24.4747 49.0381 23.8039 48.9864 23.1977V12.7365C48.9864 12.6978 49.0639 9.49887 52.128 8.23476C55.2567 7.07385 57.6356 8.81522 58.4759 10.2728L64.8626 20.3341C64.9014 20.3986 65.7935 21.8433 67.5389 21.0177C68.3663 20.6179 68.5602 19.7278 68.5602 19.444V9.20219C68.599 8.55724 69.2713 7.84779 70.1375 7.84779C71.0166 7.84779 71.6631 8.54434 71.7148 9.17639ZM10.2782 16.0903C10.2653 19.7794 13.2518 22.7849 16.9494 22.7978C20.6211 22.8107 23.6076 19.8439 23.6205 16.1677C23.6464 12.4786 20.6728 9.48597 16.9881 9.46017C13.3035 9.43437 10.3041 12.4012 10.2782 16.0903Z" fill="white"/>
</g>
<defs>
<clipPath id="clip0_64_349">
<rect width="181" height="32" fill="white"/>
</clipPath>
</defs>
</svg>
