<svg width="141" height="60" viewBox="0 0 141 60" fill="none" xmlns="http://www.w3.org/2000/svg">
<g clip-path="url(#clip0_63_337)">
<path d="M11.9099 0H14.133C20.5114 0.257052 26.5595 2.02651 32.4266 4.43669C35.0784 5.52662 37.5975 6.85896 40.0683 8.30838C42.0037 9.44411 43.6679 10.6988 45.5238 12.1171C46.4995 12.8628 47.4167 13.6918 48.3142 14.526C50.5265 16.5824 52.5946 18.99 54.1209 21.6006C54.4366 22.1408 54.7237 22.7796 55.0171 23.3745C55.2835 23.915 55.4637 24.2984 55.5577 24.5249C56.1922 26.0532 56.56 27.7661 56.4958 29.4274C56.4577 30.4028 56.3656 31.3896 56.1198 32.3326C55.4961 34.723 54.0548 36.9328 52.3462 38.7499C50.8212 40.3724 48.7194 41.554 46.6735 42.3926C41.0961 44.6793 34.9495 45.2036 29.0424 44.0475C28.2988 43.902 27.5565 43.7476 26.8155 43.5843C26.8129 43.5836 26.8102 43.5836 26.8076 43.5841C26.805 43.5846 26.8025 43.5857 26.8004 43.5872C26.7983 43.5888 26.7965 43.5909 26.7953 43.5932C26.794 43.5956 26.7933 43.5982 26.7932 43.6008C26.745 44.5005 26.7627 45.9277 25.716 46.298C25.0135 46.5461 24.0702 46.5977 23.3912 46.326C22.4937 45.9678 22.0352 45.0973 21.8783 44.1729C21.7313 43.308 21.6221 42.4407 21.5505 41.5712C21.5492 41.5552 21.5436 41.5398 21.5343 41.5267C21.525 41.5136 21.5124 41.5033 21.4978 41.4967C19.0219 40.3775 16.5473 38.9599 14.429 37.2528C12.3831 35.6042 10.2603 33.8081 9.00204 31.4475C7.69422 28.9941 9.23197 27.1292 11.2525 25.9253C13.5156 24.5765 16.0239 23.8021 18.5271 23.1417C19.5326 22.877 20.5768 22.7669 21.5937 22.5589C21.6246 22.5527 21.6525 22.5365 21.6733 22.5128C21.6941 22.4891 21.7065 22.4592 21.7087 22.4278C21.7735 21.4587 21.7379 20.4452 21.8198 19.52C21.9259 18.3175 22.0739 17.122 22.2162 15.9232C22.3322 14.9463 22.5319 13.9864 22.8151 13.0435C23.0451 12.28 23.5088 11.9179 24.2208 12.5052C25.1405 13.2636 25.6029 14.4783 25.8907 15.6216C26.4236 17.7398 26.5106 20.0151 26.5506 22.0136C26.5507 22.0176 26.5516 22.0217 26.5533 22.0254C26.5549 22.0291 26.5574 22.0324 26.5604 22.0352C26.5634 22.038 26.5669 22.0402 26.5708 22.0416C26.5747 22.043 26.5788 22.0436 26.583 22.0435C27.96 22.0059 29.3993 21.9474 30.7707 22.0759C32.8939 22.2749 34.9848 22.6511 37.0437 23.2047C39.1359 23.7671 41.0891 24.5529 42.4718 26.2327C43.3388 27.285 43.8229 28.7955 43.2893 30.1152C42.745 31.4602 41.6017 32.5476 40.177 32.888C39.3442 33.0872 38.3146 32.8918 37.5143 32.6151C37.0436 32.4515 36.8302 32.0055 37.3504 31.7116C38.0625 31.3082 38.7542 31.0244 39.2814 30.3646C40.0963 29.3434 38.4753 28.7497 37.8211 28.5353C36.5806 28.1287 35.3319 27.8437 34.0552 27.5809C31.625 27.0817 29.1563 26.8015 26.649 26.7404C26.6418 26.7402 26.6345 26.7417 26.6277 26.7447C26.621 26.7478 26.6148 26.7524 26.6096 26.7582C26.6045 26.764 26.6004 26.771 26.5977 26.7786C26.595 26.7863 26.5936 26.7945 26.5938 26.8028L26.8701 39.6076C26.8703 39.6179 26.8738 39.6278 26.8799 39.6357C26.886 39.6435 26.8944 39.6489 26.9038 39.6509C30.6697 40.438 34.6052 40.4532 38.4061 39.9277C41.0541 39.5612 43.5377 38.8212 45.8643 37.5041C46.7671 36.993 47.578 36.3987 48.297 35.7213C50.3937 33.7463 51.3649 30.8424 50.9895 27.9913C50.851 26.9383 50.4769 25.8165 50.0387 24.8571C48.0982 20.6055 44.8709 17.197 41.049 14.3911C35.2791 10.1548 28.6213 7.19364 21.715 5.44581C18.1504 4.54358 14.5088 4.02969 10.7901 3.90414C8.67789 3.8333 6.66799 3.92619 4.76036 4.18282C4.07437 4.27508 3.36933 4.49332 2.61919 4.69311C2.42144 4.74571 2.23787 4.83499 2.0685 4.96098C2.06555 4.96315 2.06315 4.96598 2.06149 4.96924C2.05983 4.97249 2.05897 4.97608 2.05897 4.9797C2.05897 4.98331 2.05983 4.98685 2.06149 4.99001C2.06315 4.99318 2.06555 4.99588 2.0685 4.99788C2.18833 5.07847 2.29695 5.12556 2.39434 5.13913C2.78222 5.193 3.17031 5.24666 3.55861 5.30011C4.04007 5.36564 4.61173 5.56098 4.77878 6.07253C4.89692 6.43584 4.70573 6.68526 4.38497 6.83287C4.27191 6.88462 4.1544 6.92238 4.03245 6.94613C3.255 7.09565 2.34797 7.05302 1.55401 6.87423C0.863573 6.71835 0.176316 6.54719 0.0283203 5.73849V5.24539C0.218872 4.3877 0.655871 3.5631 1.21355 2.90456C1.8284 2.17603 2.66175 1.70138 3.55353 1.38324C4.21242 1.14867 5.12177 0.916013 6.2816 0.68526C8.14054 0.315376 10.0166 0.0869565 11.9099 0ZM11.1515 31.8216C11.807 32.4547 12.4409 33.0923 13.1612 33.6274C14.5636 34.6683 16.033 35.6038 17.5693 36.4339C18.893 37.1497 20.1538 37.6447 21.4902 38.1283C21.4986 38.1315 21.5076 38.1326 21.5165 38.1317C21.5254 38.1309 21.5338 38.1279 21.5411 38.1232C21.5484 38.1185 21.5543 38.1121 21.5583 38.1047C21.5622 38.0973 21.5641 38.089 21.5639 38.0806C21.4648 34.3839 21.4544 30.687 21.5327 26.9898C21.5328 26.9848 21.5319 26.9798 21.53 26.9751C21.5281 26.9705 21.5253 26.9663 21.5218 26.9628C21.5183 26.9593 21.5141 26.9567 21.5095 26.955C21.505 26.9533 21.5001 26.9526 21.4953 26.9529C20.5611 27.0204 19.6238 27.1026 18.6833 27.1998C16.6673 27.4081 14.6803 27.7733 12.7222 28.2954C11.9111 28.5118 10.959 28.8108 10.3073 29.337C9.37743 30.0878 10.576 31.2649 11.1515 31.8216ZM57.9688 19.9482C56.9398 20.6316 56.1509 19.151 55.9642 18.3958C55.8181 17.8053 55.9966 17.0303 55.773 16.5379C55.5513 16.0511 55.1486 15.6534 54.9288 15.1731C53.1211 11.2199 56.7105 7.54231 59.7949 5.7754C61.6795 4.69565 63.759 3.99067 65.9434 4.03966C67.3185 4.07084 68.5673 4.52259 69.5448 5.49926C69.6661 5.62078 69.7963 5.82503 69.9507 5.96628C69.966 5.98036 69.985 5.98945 70.0053 5.99236C70.8052 6.1052 71.5096 6.38324 72.1185 6.82651C74.5951 8.62715 73.7757 11.7862 71.9553 13.737C70.9458 14.8191 69.8986 15.737 68.8137 16.4908C66.8053 17.8867 64.2386 19.039 61.7671 19.0448C61.2622 19.046 60.728 18.9417 60.2103 18.8672C59.9543 18.8303 59.276 18.7171 59.0867 18.5536C59.0071 18.4853 58.9427 18.4973 58.8936 18.5898C58.6541 19.039 58.3988 19.6632 57.9688 19.9482ZM57.4257 13.7815C58.8072 11.6469 60.5336 9.80488 62.4976 8.20339C62.5276 8.17879 62.5234 8.16734 62.4849 8.16903C61.4508 8.21103 60.6619 8.58134 59.7739 9.1508C58.543 9.9404 56.5269 11.7894 57.2129 13.4621C57.2608 13.5788 57.2987 13.681 57.3266 13.7688C57.3503 13.8431 57.3834 13.8473 57.4257 13.7815ZM63.1264 12.3684C62.1889 13.3075 61.5302 14.2148 60.8137 15.196C60.7519 15.2804 60.7722 15.3336 60.8747 15.3557C61.0297 15.3892 61.1823 15.411 61.3327 15.4212C64.3688 15.6257 67.0568 14.782 69.3968 12.8901C70.1736 12.2621 70.965 11.302 71 10.2783C71.0406 9.06872 69.9996 8.31601 68.8658 8.57434C67.5294 8.87847 66.5938 9.43712 65.4759 10.2999C64.648 10.9387 63.8649 11.6282 63.1264 12.3684ZM98.9127 20.1977C100.045 21.3805 100.986 22.8305 101.684 24.3092C101.76 24.47 101.934 24.9016 102.205 25.604C103.42 28.7453 103.964 32.1977 103.499 35.5514C103.294 37.0231 102.86 38.3396 101.927 39.5147C100.984 40.7026 99.0321 41.4318 97.7687 40.2445C97.4219 39.9194 97.0325 39.4269 96.7188 38.9847C95.9185 37.8573 95.1899 36.6844 94.5331 35.4662C93.6486 33.8246 92.7784 32.1754 91.9226 30.5186C91.8108 30.3022 91.6768 30.1362 91.5205 30.0204C91.4159 29.9427 91.3484 29.9673 91.3179 30.0942C91.2489 30.3826 91.2042 30.6744 91.1839 30.9697C90.9984 33.6579 90.9927 36.1368 90.8517 38.7162C90.792 39.8081 90.6707 42.376 88.9347 42.0643C86.7967 41.6806 86.6589 38.8473 86.65 37.1605C86.6437 36.0225 86.7135 34.8887 86.8596 33.7591C87.2312 30.8787 87.8746 28.0829 88.8865 25.3578C89.1081 24.761 89.5756 23.8327 90.2426 23.7041C90.9921 23.5597 91.6666 24.1565 92.0668 24.7139C93.5992 26.8496 94.9312 28.7985 96.0626 30.5606C97.1767 32.2954 98.044 33.6293 98.6643 34.562C98.7659 34.7147 98.9628 34.9489 99.1019 34.9941C99.2713 35.0492 99.3554 34.9911 99.3541 34.8197C99.3465 33.831 99.2836 32.6914 99.1019 31.2674C98.6808 27.9633 97.7268 24.9442 96.8896 21.8564C96.7613 21.3837 96.5295 20.4254 96.6375 19.8846C96.7785 19.1796 97.4772 19.1841 97.9872 19.4698C98.3171 19.6551 98.6256 19.8978 98.9127 20.1977ZM109.347 26.1849C108.445 25.9762 107.432 25.7459 106.662 25.193C106.288 24.9251 105.82 24.224 105.89 23.7283C105.955 23.2727 106.48 23.0621 106.885 22.9743C110.202 22.2547 113.587 21.866 116.968 21.6191C118.138 21.5338 119.217 21.6426 120.183 22.368C120.88 22.8918 121.422 23.5536 121.809 24.3531C122.485 25.7504 121.109 26.113 120.094 26.2772C117.765 26.6526 115.907 26.6144 113.081 26.6157C113.072 26.6157 113.062 26.6181 113.055 26.6226C113.047 26.6271 113.042 26.6334 113.04 26.6405L112.277 29.1881C112.275 29.1938 112.275 29.1999 112.276 29.2058C112.277 29.2117 112.279 29.2173 112.283 29.2221C112.287 29.2269 112.292 29.2309 112.297 29.2336C112.303 29.2363 112.309 29.2377 112.315 29.2378C113.748 29.2276 115.192 29.2165 116.646 29.2047C117.664 29.1958 118.484 29.3618 118.629 30.5427C118.715 31.2426 118.798 32.211 118.042 32.5183C117.744 32.6399 117.246 32.6462 116.898 32.6532C115.459 32.6821 114.02 32.7096 112.581 32.7359C112.169 32.7432 111.661 32.7947 111.055 32.8906C111.045 32.8921 111.035 32.8961 111.028 32.9022C111.02 32.9082 111.014 32.9161 111.011 32.9249C110.564 34.1109 110.173 35.3156 109.839 36.5389C109.837 36.5467 109.836 36.5549 109.838 36.5628C109.839 36.5707 109.843 36.5782 109.848 36.5847C109.852 36.5911 109.859 36.5964 109.866 36.6C109.873 36.6037 109.881 36.6056 109.889 36.6057C110.426 36.6134 110.963 36.5675 111.499 36.4683C113.536 36.0916 115.514 35.8059 117.249 35.5521C117.548 35.5084 117.822 35.5487 118.071 35.673C118.599 35.937 119.051 36.7546 119.174 37.3222C119.401 38.3707 118.788 38.8689 118.017 39.4225C115.815 41.003 112.935 42.411 110.199 42.614C109.242 42.6846 107.813 42.2653 106.977 41.5559C106.672 41.2971 106.398 40.9765 106.154 40.5938C105.027 38.8238 105.055 36.6337 105.877 34.7338C105.975 34.5099 106.162 34.0573 106.439 33.376C106.536 33.1385 106.564 32.9152 106.521 32.706C106.415 32.1877 106.317 31.6681 106.225 31.1472C106.049 30.1527 106.831 29.6291 107.707 29.5661C108.209 29.5298 108.421 28.891 108.567 28.4736C108.829 27.7236 109.097 26.9752 109.37 26.2282C109.372 26.2238 109.372 26.2192 109.372 26.2145C109.372 26.2099 109.37 26.2054 109.368 26.2013C109.366 26.1972 109.363 26.1937 109.359 26.1908C109.355 26.188 109.351 26.186 109.347 26.1849ZM67.8184 31.193C66.3251 30.81 65.6302 29.874 65.7312 28.3304C65.9529 24.9309 69.5162 23.4318 72.3205 22.7911C75.4094 22.0855 78.7027 21.908 81.8373 22.4004C83.0511 22.5913 84.4206 22.9489 85.454 23.5928C86.2441 24.0853 85.4527 25.2579 84.9617 25.6206C84.6547 25.8471 84.2965 26.0076 83.887 26.1022C83.2031 26.26 82.3101 26.3678 81.2078 26.4255C79.8541 26.4963 78.4993 26.5468 77.1434 26.5769C77.01 26.5801 76.8067 26.6061 76.6143 26.6106C74.7932 26.6526 72.7766 26.846 70.9149 27.252C70.5401 27.3334 69.6382 27.4982 69.4286 27.8373C69.3591 27.9497 69.3788 28.0428 69.4876 28.1166C69.8992 28.396 70.6176 28.4787 71.1042 28.5366C74.9237 28.9875 77.332 29.2744 78.3292 29.3975C79.8651 29.5871 81.3908 29.8918 82.677 30.5275C84.3183 31.3381 85.1942 33.285 85.2691 35.0424C85.36 37.1784 84.6664 38.888 82.9724 40.1892C80.3936 42.1699 76.5647 42.4028 73.4702 41.6895C71.1937 41.1652 68.5965 39.8774 67.2658 37.87C66.5893 36.8494 66.5112 35.5113 67.1699 34.4571C68.3539 32.5635 71.4815 32.3497 73.439 32.5603C75.5262 32.7843 77.5474 33.1922 79.404 34.1351C80.6108 34.7478 79.6066 35.568 78.8952 35.8778C77.4946 36.4874 75.967 36.7762 74.5157 36.2901C72.8623 35.7366 70.967 34.4176 69.325 35.0246C68.836 35.2053 68.2967 35.7239 68.4644 36.2971C68.7127 37.1465 70.4048 37.5697 71.1454 37.6944C71.4829 37.7508 71.9045 37.7837 72.4101 37.793C75.4164 37.8471 78.8882 37.3304 81.3781 35.4872C81.8818 35.1143 82.1371 34.5589 81.7916 33.9881C81.7848 33.9767 81.777 33.967 81.7687 33.9595C81.7603 33.9521 81.7517 33.9471 81.7433 33.9449L81.6436 33.9188C81.6251 33.9138 81.6064 33.8998 81.5909 33.8793C80.8972 32.9313 78.6926 32.526 77.6102 32.3434C75.4132 31.9731 73.1843 31.8191 70.9663 31.6206C69.5988 31.4984 68.8804 31.4653 67.8184 31.193ZM140.973 30.0515V31.6104C140.88 32.7964 140.668 33.8545 140.337 34.7847C139.115 38.2161 136.273 40.8038 133.004 42.3321C131.243 43.1548 129.44 43.5226 127.498 43.4055C127.478 43.4043 127.458 43.4096 127.442 43.4206C127.425 43.4317 127.413 43.4478 127.407 43.4666C126.532 46.0212 125.898 48.3175 125.192 51.2679C125.1 51.6513 125.009 52.0657 124.918 52.5111C124.489 54.618 124.045 56.7224 123.584 58.8242C123.445 59.4592 123.428 59.8231 122.819 60H122.454C121.151 59.4706 119.946 58.6028 119.559 57.2119C119.229 56.0246 119.285 54.6751 119.432 53.4636C119.783 50.5864 120.261 47.8339 121.139 45.0923C121.691 43.3659 122.301 41.6596 122.97 39.9735C122.976 39.9574 122.979 39.9401 122.979 39.9227C122.978 39.9054 122.975 39.8882 122.967 39.8723C122.261 38.3319 121.899 36.6095 122.01 34.9158C122.287 30.7171 124.75 26.7137 127.433 23.5947C127.797 23.1718 128.192 22.8064 128.617 22.4984C129.083 22.1606 129.584 22.2967 129.705 22.9069C129.748 23.1215 129.75 23.3489 129.712 23.589C129.518 24.8004 128.988 25.926 128.381 26.9796C127.927 27.7656 127.475 28.5521 127.023 29.3389C126.12 30.9162 125.404 32.7372 125.179 34.5283C125.126 34.9502 125.176 35.3446 125.239 35.7589C125.246 35.8055 125.263 35.8095 125.29 35.7709C126.04 34.7173 126.811 33.6738 127.577 32.6278C129.113 30.5294 131.009 28.5468 132.57 27.0223C133.67 25.9476 134.559 25.2305 135.795 24.6394C136.859 24.1311 137.82 24.175 138.759 24.9359C140.267 26.1582 140.811 28.2019 140.973 30.0515ZM136.298 29.1665C135.138 30.4352 134.087 31.7898 133.146 33.2303C132.386 34.3934 131.645 35.5667 130.876 36.7241C130.554 37.2098 130.256 37.7111 129.982 38.2282C129.98 38.2318 129.979 38.2357 129.979 38.2397C129.979 38.2437 129.979 38.2477 129.981 38.2514C129.982 38.2551 129.984 38.2584 129.987 38.2611C129.99 38.2638 129.994 38.2659 129.997 38.267C130.076 38.2916 130.174 38.301 130.291 38.295C132.177 38.2015 134.247 37.2178 135.594 35.9777C137.389 34.3247 138.634 31.6797 138.161 29.1894C138.084 28.7854 137.735 27.8125 137.127 28.3578C136.799 28.6513 136.523 28.9209 136.298 29.1665ZM62.6259 41.9351C60.9357 42.2526 59.6139 41.5794 59.3585 39.7871C59.212 38.7584 59.1235 37.6288 59.093 36.3983C59.0316 33.902 59.093 31.4087 59.2772 28.9183C59.3746 27.5996 59.5394 26.2893 59.7714 24.9875C59.876 24.4034 60.0322 23.8341 60.2402 23.2797C60.4225 22.7943 60.7337 22.1994 61.3581 22.4023C62.0064 22.6131 62.4601 23.0571 62.7192 23.734C63.0375 24.5663 63.1658 25.4265 63.2687 26.2944C63.4687 27.9735 63.5926 29.6138 63.6739 31.2414C63.7967 33.6965 63.8958 36.1525 63.9712 38.6093C63.989 39.1938 63.9578 39.7743 63.8778 40.3508C63.773 41.1092 63.4344 41.783 62.6259 41.9351Z" fill="white"/>
</g>
<defs>
<clipPath id="clip0_63_337">
<rect width="141" height="60" fill="white"/>
</clipPath>
</defs>
</svg>
