<svg width="118" height="42" viewBox="0 0 118 42" fill="none" xmlns="http://www.w3.org/2000/svg">
<g clip-path="url(#clip0_63_314)">
<path d="M18.5859 8.40527H11.2969V16.3691H18.1191V24.3594H11.2969V33.5947H19.3135V42H0.375V0H18.5859V8.40527Z" fill="white"/>
<path d="M30.7217 0C30.9127 1.157 31.2924 3.0842 31.8594 5.7832C32.3173 7.839 32.6895 9.73397 32.9785 11.4658L35.3115 0H44.4707L40.6309 18.5742L45.9531 40.126L49.6055 18.5742L45.6348 0H56.1953C56.3853 1.15701 56.765 3.08424 57.333 5.7832C57.79 7.83907 58.1632 9.73391 58.4512 11.4658L60.7852 0H69.9434L66.1025 18.5742L71.8896 42H61.7715C60.5635 37.8131 59.4552 32.7102 58.4512 26.6953C58.1772 29.3592 57.7928 32.1785 57.2988 35.1523L56.2725 42H36.2988C35.0888 37.8131 33.9815 32.7102 32.9785 26.6953C32.7035 29.3592 32.3191 32.1785 31.8262 35.1523L30.7988 42H20.1631L24.1318 18.5742L20.1621 0H30.7217Z" fill="white"/>
<path d="M108.608 18.9121V0H117.74V42H108.167L102.486 22.9072V42H93.3545V0H102.486L108.608 18.9121Z" fill="white"/>
<path fill-rule="evenodd" clip-rule="evenodd" d="M83.3906 8.40527H90.6807V0H72.4697V42H91.4082V33.5947H83.3906V24.3594H90.2139V16.3691H83.3906V8.40527ZM83.29 24.182H76.525V16.229H83.29V24.182Z" fill="white"/>
</g>
<defs>
<clipPath id="clip0_63_314">
<rect width="118" height="42" fill="white"/>
</clipPath>
</defs>
</svg>
