<svg width="96" height="60" viewBox="0 0 96 60" fill="none" xmlns="http://www.w3.org/2000/svg">
<g clip-path="url(#clip0_63_340)">
<path d="M1.37952 35.0404C1.12152 35.0524 0.868318 34.9672 0.671518 34.8004C0.503518 34.6 0.425518 34.3396 0.455518 34.0804V9.60042C0.425518 9.34122 0.503518 9.08082 0.671518 8.88042C0.870718 8.72922 1.11792 8.65722 1.36752 8.67642H4.03152C4.53552 8.62602 4.98912 8.98002 5.06352 9.48042L5.32752 10.4404C6.09432 9.70002 7.00032 9.11682 7.99152 8.72442C9.00552 8.31402 10.0891 8.10162 11.1835 8.10042C13.3651 8.02842 15.4507 8.99922 16.7995 10.7164C18.2851 12.7636 19.0231 15.2584 18.8875 17.7844C18.9283 19.618 18.5767 21.4384 17.8555 23.1244C17.2603 24.5284 16.2931 25.744 15.0595 26.6404C13.8667 27.454 12.4471 27.874 11.0035 27.8404C10.0231 27.8452 9.04872 27.6832 8.12352 27.3604C7.27272 27.0748 6.48672 26.626 5.80752 26.0404V34.1044C5.83392 34.3612 5.76192 34.6192 5.60352 34.8244C5.39832 34.9828 5.14032 35.0548 4.88352 35.0284L1.37952 35.0404ZM9.45552 23.8084C10.6411 23.8936 11.7883 23.3632 12.4915 22.4044C13.2391 21.0628 13.5775 19.5316 13.4635 18.0004C13.5787 16.4548 13.2451 14.9092 12.5035 13.5484C11.7979 12.58 10.6387 12.0484 9.44352 12.1444C8.17512 12.1456 6.93192 12.4888 5.84352 13.1404V22.8004C6.92352 23.4724 8.17152 23.8252 9.44352 23.8204L9.45552 23.8084Z" fill="white"/>
<path d="M23.448 27.456C23.0184 27.5364 22.6044 27.2532 22.524 26.8224C22.506 26.7264 22.506 26.628 22.524 26.532V9.60001C22.494 9.34081 22.572 9.08041 22.74 8.88001C22.9392 8.72881 23.1864 8.65681 23.436 8.67601H26.088C26.592 8.62561 27.0456 8.97961 27.12 9.48001L27.6 11.448C28.3884 10.5252 29.3304 9.7452 30.384 9.14401C31.2432 8.69401 32.1984 8.46001 33.168 8.46001H33.684C33.9444 8.43721 34.2048 8.5092 34.416 8.664C34.584 8.8644 34.662 9.12481 34.632 9.38401V12.48C34.6524 12.7296 34.5804 12.9768 34.428 13.176C34.2276 13.344 33.9672 13.422 33.708 13.392H33.048C32.7756 13.392 32.4324 13.392 32.016 13.392C31.3224 13.4064 30.6312 13.4868 29.952 13.632C29.244 13.7628 28.5528 13.968 27.888 14.244V26.544C27.9072 26.7936 27.8352 27.0408 27.684 27.24C27.4836 27.408 27.2232 27.486 26.964 27.456H23.448Z" fill="white"/>
<path d="M39.948 5.748C39.1296 5.7888 38.3268 5.514 37.704 4.98C37.1256 4.4388 36.8148 3.6708 36.852 2.88C36.8112 2.0844 37.122 1.3116 37.704 0.767999C39.0192 -0.284401 40.8888 -0.284401 42.204 0.767999C42.7824 1.3092 43.0932 2.0772 43.056 2.868C43.0932 3.6588 42.7824 4.4268 42.204 4.968C41.58 5.5092 40.7724 5.7888 39.948 5.748ZM38.184 27.468C37.7544 27.5484 37.3404 27.2652 37.26 26.8344C37.242 26.7384 37.242 26.64 37.26 26.544V9.6C37.23 9.3408 37.308 9.0804 37.476 8.88C37.6752 8.7288 37.9224 8.6568 38.172 8.676H41.712C41.9688 8.6496 42.2268 8.7216 42.432 8.88C42.5904 9.0852 42.6624 9.3432 42.636 9.6V26.544C42.6564 26.7936 42.5844 27.0408 42.432 27.24C42.2316 27.408 41.9712 27.486 41.712 27.456L38.184 27.468Z" fill="white"/>
<path d="M48.12 27.456C47.6904 27.5364 47.2764 27.2532 47.196 26.8224C47.178 26.7264 47.178 26.628 47.196 26.532V9.6C47.166 9.3408 47.244 9.0804 47.412 8.88C47.6112 8.7288 47.8584 8.6568 48.108 8.676H50.76C51.264 8.6256 51.7176 8.9796 51.792 9.48L52.092 10.476C53.184 9.7236 54.3648 9.1116 55.608 8.652C56.634 8.2944 57.7128 8.1084 58.8 8.1C60.6912 7.938 62.508 8.8704 63.48 10.5C64.5756 9.7464 65.766 9.1416 67.02 8.7C68.1264 8.3316 69.2856 8.1456 70.452 8.148C71.9256 8.0592 73.3704 8.58 74.448 9.588C75.4416 10.6776 75.9528 12.1236 75.864 13.596V26.544C75.8832 26.7936 75.8112 27.0408 75.66 27.24C75.4596 27.408 75.1992 27.486 74.94 27.456H71.448C71.0184 27.5364 70.6044 27.2532 70.524 26.8224C70.506 26.7264 70.506 26.628 70.524 26.532V14.724C70.524 13.0524 69.7764 12.216 68.28 12.216C66.8856 12.2316 65.5116 12.5604 64.26 13.176V26.544C64.2804 26.7936 64.2084 27.0408 64.056 27.24C63.8556 27.408 63.5952 27.486 63.336 27.456H59.808C59.3784 27.5364 58.9644 27.2532 58.884 26.8224C58.866 26.7264 58.866 26.628 58.884 26.532V14.724C58.884 13.0524 58.1364 12.216 56.64 12.216C55.2288 12.2244 53.8392 12.5664 52.584 13.212V26.532C52.6032 26.7816 52.5312 27.0288 52.38 27.228C52.1796 27.396 51.9192 27.474 51.66 27.444L48.12 27.456Z" fill="white"/>
<path d="M88.7043 28.0079C86.1183 28.1771 83.5779 27.2699 81.6843 25.4999C79.9527 23.5175 79.0875 20.9243 79.2843 18.2999C79.1115 15.5795 79.9875 12.8951 81.7323 10.7999C83.5503 8.9231 86.0955 7.9283 88.7043 8.0759C90.6339 7.9607 92.5395 8.5499 94.0683 9.7319C95.3619 10.8359 96.0747 12.4739 96.0003 14.1719C96.0879 15.8339 95.2947 17.4203 93.9123 18.3479C92.0511 19.4111 89.9187 19.9031 87.7803 19.7639C86.5683 19.7783 85.3587 19.6415 84.1803 19.3559C84.1875 20.6831 84.7227 21.9527 85.6683 22.8839C86.7879 23.6783 88.1511 24.0563 89.5203 23.9519C90.1899 23.9519 90.8595 23.9075 91.5243 23.8199C92.4387 23.6783 93.3435 23.4851 94.2363 23.2439H94.4523H94.6323C95.0487 23.2439 95.2563 23.5283 95.2563 24.0959V25.7879C95.2791 26.0747 95.2215 26.3615 95.0883 26.6159C94.9179 26.8163 94.6923 26.9615 94.4403 27.0359C92.6043 27.7115 90.6603 28.0415 88.7043 28.0079ZM87.5043 16.4519C88.4487 16.5203 89.3931 16.3211 90.2283 15.8759C90.8019 15.4835 91.1259 14.8175 91.0803 14.1239C91.0803 12.5795 90.1599 11.8079 88.3203 11.8079C85.9599 11.8079 84.5967 13.2563 84.2283 16.1519C85.2999 16.3571 86.3895 16.4579 87.4803 16.4519H87.5043Z" fill="white"/>
<path d="M86.7723 48.1316C76.2603 55.8836 61.0203 59.9996 47.9043 59.9996C30.3771 60.0932 13.4451 53.6456 0.420342 41.9156C-0.563658 41.0276 0.312342 39.8156 1.50034 40.4996C15.9699 48.7616 32.3463 53.1008 49.0083 53.0876C61.4415 53.0216 73.7403 50.5052 85.2003 45.6836C87.0243 44.9276 88.5123 46.7996 86.7723 48.1316Z" fill="white"/>
<path d="M91.2 43.2C89.856 41.484 82.32 42.384 78.924 42.792C77.892 42.912 77.724 42.024 78.66 41.376C84.66 37.152 94.536 38.376 95.676 39.792C96.816 41.208 95.376 51.084 89.676 55.8C88.812 56.52 87.984 56.136 88.368 55.176C89.652 51.948 92.496 44.868 91.2 43.2Z" fill="white"/>
</g>
<defs>
<clipPath id="clip0_63_340">
<rect width="96" height="60" fill="white"/>
</clipPath>
</defs>
</svg>
