<svg width="40" height="67" viewBox="0 0 40 67" fill="none" xmlns="http://www.w3.org/2000/svg">
<g clip-path="url(#clip0_71_120)">
<mask id="mask0_71_120" style="mask-type:luminance" maskUnits="userSpaceOnUse" x="3" y="59" width="6" height="8">
<path d="M3.53796 59.115H8.72896V66.616H3.53896L3.53796 59.115Z" fill="white"/>
</mask>
<g mask="url(#mask0_71_120)">
<path fill-rule="evenodd" clip-rule="evenodd" d="M7.77296 61.216C7.69196 60.698 7.25296 59.988 6.24596 59.988C5.43196 59.988 4.85196 60.515 4.85196 61.186C4.85196 61.703 5.16696 62.099 5.77796 62.231L6.85796 62.464C8.05796 62.728 8.72896 63.479 8.72896 64.484C8.72896 65.601 7.77296 66.616 6.23596 66.616C4.49696 66.616 3.67096 65.499 3.53796 64.474L4.49496 64.169C4.56696 64.972 5.13596 65.713 6.22496 65.713C7.22396 65.713 7.71196 65.195 7.71196 64.566C7.71196 64.048 7.35496 63.601 6.63196 63.449L5.60596 63.226C4.57696 63.002 3.84396 62.332 3.84396 61.256C3.84396 60.129 4.89296 59.116 6.22496 59.116C7.85496 59.116 8.50496 60.12 8.66796 60.902L7.77296 61.216Z" fill="white"/>
</g>
<path fill-rule="evenodd" clip-rule="evenodd" d="M12.75 62.627C13.614 62.627 14.144 62.15 14.144 61.409C14.144 60.647 13.614 60.16 12.749 60.16H11.304V62.627H12.749H12.75ZM11.304 63.52V66.464H10.307V59.267H12.932C14.266 59.267 15.162 60.191 15.162 61.399C15.162 62.617 14.266 63.52 12.932 63.52H11.304Z" fill="white"/>
<mask id="mask1_71_120" style="mask-type:luminance" maskUnits="userSpaceOnUse" x="16" y="59" width="8" height="8">
<path d="M16.1281 59.114H23.3741V66.616H16.1281V59.114Z" fill="white"/>
</mask>
<g mask="url(#mask1_71_120)">
<path fill-rule="evenodd" clip-rule="evenodd" d="M19.7511 65.702C21.0951 65.702 22.3571 64.738 22.3571 62.86C22.3571 60.982 21.0951 60.028 19.7511 60.028C18.4081 60.028 17.1461 60.982 17.1461 62.86C17.1461 64.738 18.4081 65.702 19.7511 65.702ZM19.7511 59.114C21.5631 59.114 23.3741 60.454 23.3741 62.86C23.3741 65.266 21.5641 66.616 19.7511 66.616C17.9401 66.616 16.1281 65.266 16.1281 62.86C16.1281 60.454 17.9401 59.114 19.7511 59.114Z" fill="white"/>
</g>
<path fill-rule="evenodd" clip-rule="evenodd" d="M27.485 62.627C28.299 62.627 28.849 62.15 28.849 61.409C28.849 60.647 28.299 60.16 27.485 60.16H25.959V62.627H27.485ZM27.037 63.52H25.959V66.464H24.95V59.267H27.669C29.032 59.267 29.877 60.221 29.877 61.409C29.877 62.444 29.215 63.246 28.127 63.449L29.847 66.464H28.686L27.0359 63.52H27.037ZM34.0499 60.191V66.464H33.0509V60.191H30.639V59.267H36.4609V60.191H34.0499Z" fill="white"/>
<mask id="mask2_71_120" style="mask-type:luminance" maskUnits="userSpaceOnUse" x="0" y="37" width="21" height="17">
<path d="M0 37.031H20.36V53.829H0V37.031Z" fill="white"/>
</mask>
<g mask="url(#mask2_71_120)">
<path fill-rule="evenodd" clip-rule="evenodd" d="M20.349 51.675C15.037 51.563 10.512 49.889 7.263 46.834C4.52027 44.2449 2.76058 40.7845 2.284 37.043L2.283 37.031L0.012 37.329L0 37.331L0.002 37.343C0.491017 41.6439 2.52335 45.6215 5.722 48.538C7.48 50.143 9.559 51.408 11.902 52.295C14.44 53.257 17.282 53.772 20.349 53.829H20.361V51.675H20.349Z" fill="white"/>
</g>
<path fill-rule="evenodd" clip-rule="evenodd" d="M39.1481 32.2C38.6702 30.8619 37.9969 29.6019 37.1501 28.461C36.2795 27.2944 35.2506 26.2547 34.0931 25.372C31.6701 23.512 28.6731 22.226 25.1831 21.552L18.3131 20.236C16.7221 19.931 14.7161 19.14 14.1951 17.098C14.1051 16.7451 14.0601 16.3822 14.0611 16.018C14.0611 14.807 14.6681 13.595 15.7271 12.693C16.5521 11.992 18.0221 11.152 20.3481 11.135C20.3711 11.135 20.3941 11.132 20.4181 11.132C22.4191 11.132 24.0881 11.612 25.3781 12.559C26.3311 13.259 27.0651 14.197 27.5581 15.349L27.5621 15.356L29.8751 15.052L29.8901 15.051L29.8851 15.037C29.5121 13.955 28.7521 12.403 27.2511 11.155C25.5291 9.72199 23.2241 8.995 20.4001 8.995C20.3831 8.995 20.3661 8.998 20.3481 8.998C17.9901 9.008 15.7981 9.754 14.1751 11.095C12.5531 12.438 11.6591 14.247 11.6591 16.191C11.6591 16.609 11.6951 17.021 11.7671 17.419C11.9927 18.7151 12.6705 19.8893 13.6801 20.733C14.7101 21.609 16.1061 22.225 17.8271 22.563L24.6951 23.895C27.6031 24.459 30.1221 25.51 32.1821 27.017C34.2151 28.504 35.7021 30.362 36.6021 32.54L36.6071 32.55L39.1381 32.217L39.1541 32.215L39.1481 32.2Z" fill="white"/>
<path fill-rule="evenodd" clip-rule="evenodd" d="M28.3301 33.616C27.1371 32.408 25.3681 31.544 23.2161 31.121L16.3411 29.753C14.6481 29.412 13.0821 28.893 11.6891 28.209C10.3141 27.535 9.10105 26.7 8.07905 25.724C7.07428 24.7696 6.24054 23.6501 5.61405 22.414C4.98266 21.1501 4.56919 19.7886 4.39105 18.387V18.374L1.99005 18.69L1.97705 18.691L1.97905 18.703C2.18105 20.393 2.64805 21.986 3.36605 23.442C4.08615 24.8958 5.05203 26.2142 6.22105 27.339C7.40605 28.486 8.82005 29.469 10.4211 30.262C12.0461 31.066 13.8711 31.677 15.8491 32.078L22.7211 33.464C23.4761 33.614 24.1651 33.828 24.7691 34.102C25.6821 34.516 26.3911 35.056 26.8731 35.71C27.3611 36.368 27.6071 37.125 27.6071 37.96C27.6071 40.847 25.0651 42.638 20.9721 42.638C20.7771 42.638 20.5821 42.63 20.3491 42.618C17.7471 42.491 15.9891 41.625 14.9731 40.922C13.2451 39.726 12.1511 38.004 11.7201 35.804L11.7181 35.792L9.43605 36.092L9.42205 36.093L9.42505 36.107C9.70205 37.729 10.4681 40.057 12.5311 41.942C13.4822 42.8015 14.5873 43.4733 15.7881 43.922C17.1371 44.436 18.6711 44.725 20.3481 44.78C20.5241 44.786 20.7351 44.793 20.9561 44.793C26.4021 44.793 30.0611 41.983 30.0611 37.805C30.0611 36.212 29.4621 34.764 28.3301 33.616Z" fill="white"/>
<path fill-rule="evenodd" clip-rule="evenodd" d="M36.6261 32.531L36.6231 32.522L34.0421 32.861L34.0251 32.864L34.0321 32.879C34.7641 34.346 35.1341 35.951 35.1341 37.649C35.1341 40.845 33.7971 43.807 31.3701 45.987C28.7701 48.323 25.1621 49.557 20.9381 49.557C20.7761 49.557 20.6151 49.554 20.4581 49.549L20.3491 49.546C15.7101 49.432 11.7571 47.953 8.92006 45.272C7.74093 44.1566 6.76026 42.8485 6.02006 41.404C5.27233 39.9443 4.7722 38.3706 4.54006 36.747L4.53706 36.735L2.65806 36.983L2.27006 37.033L2.25806 37.034L2.26006 37.046C2.73714 40.7935 4.49929 44.2595 7.24606 46.853C10.4991 49.912 15.0301 51.588 20.3481 51.701L20.4981 51.703C20.6361 51.707 20.7781 51.712 20.9211 51.712C31.8641 51.712 37.5891 44.559 37.5891 37.493C37.5891 35.745 37.2651 34.076 36.6261 32.531ZM32.1551 14.74C31.7641 13.392 30.9241 11.445 29.1401 9.82201C29.0411 9.73201 28.9321 9.65401 28.8301 9.56801L28.6951 9.45801C26.5961 7.75801 23.8101 6.88501 20.3831 6.88501H20.3481C14.1431 6.90001 9.28206 11.065 9.28206 16.365C9.28206 16.805 9.31706 17.252 9.39006 17.731L9.39106 17.743L11.7811 17.429L11.7951 17.428L11.7921 17.414C11.7196 17.0107 11.6834 16.6018 11.6841 16.192C11.6841 14.255 12.5741 12.452 14.1921 11.114C15.8091 9.77601 17.9961 9.03401 20.3481 9.02301L20.4001 9.02101C22.2941 9.02101 25.1961 9.39101 27.4131 11.319L27.4381 11.341C27.8265 11.685 28.1814 12.065 28.4981 12.476L28.5691 12.566C28.7433 12.7987 28.9052 13.0404 29.0541 13.29C29.3641 13.811 29.6361 14.393 29.8621 15.045L29.8651 15.054L32.1441 14.754L32.1581 14.753L32.1551 14.74Z" fill="white"/>
<path fill-rule="evenodd" clip-rule="evenodd" d="M34.0549 32.868C33.2209 31.195 31.9499 29.766 30.2799 28.622C28.5839 27.462 26.5449 26.644 24.2169 26.19L17.3499 24.84C15.0849 24.39 13.2449 23.537 11.8799 22.308C10.5199 21.086 9.69194 19.545 9.41494 17.728C9.34426 17.2767 9.30815 16.8208 9.30694 16.364C9.30694 11.078 14.1569 6.926 20.3479 6.911H20.3829C24.0459 6.911 26.9869 7.896 29.1229 9.84C30.9029 11.46 31.7409 13.402 32.1299 14.747L32.1339 14.757L34.8149 14.404L34.8299 14.402L34.8259 14.39C34.3779 12.637 33.3599 10.097 31.0569 7.954C28.3979 5.479 24.8069 4.224 20.3829 4.224H20.3479C12.6459 4.239 6.61294 9.574 6.61294 16.364C6.61294 16.909 6.65594 17.47 6.74494 18.078C6.91694 19.267 7.27494 20.388 7.80794 21.409C8.34442 22.4341 9.05114 23.3606 9.89794 24.149C10.8 24.9821 11.8229 25.674 12.9319 26.201C14.0999 26.766 15.4099 27.194 16.8259 27.477L23.6979 28.827C25.4129 29.161 26.9279 29.716 28.2039 30.477C29.4619 31.226 30.4639 32.16 31.1819 33.255C32.0339 34.551 32.4649 36.03 32.4649 37.648C32.4649 42.103 28.8579 46.895 20.9379 46.895C20.7649 46.895 20.5929 46.891 20.4249 46.886L20.3489 46.884C18.2949 46.827 16.4139 46.473 14.7569 45.829C13.2529 45.244 11.9239 44.419 10.8069 43.375C8.87394 41.568 7.58894 39.091 7.18694 36.4V36.387L4.52494 36.737L4.51294 36.739L4.51494 36.751C4.74769 38.377 5.24884 39.9531 5.99794 41.415C6.73893 42.8627 7.72134 44.1735 8.90294 45.291C11.7449 47.976 15.7029 49.456 20.3479 49.571L20.4579 49.574C20.6149 49.578 20.7779 49.583 20.9379 49.583C25.1679 49.583 28.7819 48.345 31.3859 46.006C33.8199 43.821 35.1599 40.852 35.1599 37.648C35.1599 35.948 34.7879 34.339 34.0549 32.868Z" fill="white" fill-opacity="0.6"/>
<path fill-rule="evenodd" clip-rule="evenodd" d="M31.203 33.241C30.483 32.143 29.478 31.206 28.216 30.455C26.939 29.693 25.421 29.138 23.703 28.802L16.831 27.453C15.417 27.171 14.109 26.743 12.943 26.178C11.8354 25.6523 10.8141 24.9614 9.91398 24.129C9.07018 23.3427 8.36586 22.4189 7.83099 21.397C7.29239 20.357 6.93334 19.2336 6.76899 18.074C6.68385 17.5079 6.64007 16.9364 6.63799 16.364C6.63799 9.58701 12.66 4.26501 20.348 4.24901H20.361V2.11301H20.349C11.313 2.12001 4.23499 8.45601 4.23499 16.538C4.23499 17.108 4.27899 17.714 4.36699 18.39C4.55499 19.828 4.96699 21.185 5.59299 22.424C6.22023 23.663 7.05534 24.7853 8.06199 25.742C9.08499 26.719 10.301 27.556 11.677 28.231C13.073 28.915 14.641 29.436 16.337 29.778L23.211 31.145C25.358 31.567 27.123 32.429 28.313 33.634C29.441 34.776 30.036 36.219 30.036 37.804C30.036 41.969 26.387 44.767 20.956 44.767C20.736 44.767 20.526 44.761 20.349 44.755H20.335V46.908L20.425 46.911C20.592 46.916 20.765 46.921 20.938 46.921C28.874 46.921 32.491 42.114 32.491 37.648C32.491 36.025 32.057 34.542 31.203 33.241Z" fill="white" fill-opacity="0.8"/>
<path fill-rule="evenodd" clip-rule="evenodd" d="M39.2951 13.803C38.6431 10.565 35.3481 0 20.3481 0H20.3361V2.138H20.3481L20.3661 2.137C25.4261 2.137 29.5341 3.542 32.5731 6.313C33.8717 7.50105 34.9435 8.9154 35.7361 10.487C36.3175 11.6336 36.7558 12.8474 37.0411 14.101L37.0441 14.111L39.2841 13.818L39.2961 13.817L39.2951 13.803Z" fill="white"/>
</g>
<defs>
<clipPath id="clip0_71_120">
<rect width="40" height="67" fill="white"/>
</clipPath>
</defs>
</svg>
